<?xml version="1.0" standalone="no"?>
<!DOCTYPE svg PUBLIC "-//W3C//DTD SVG 20010904//EN"
 "http://www.w3.org/TR/2001/REC-SVG-20010904/DTD/svg10.dtd">
<svg version="1.0" xmlns="http://www.w3.org/2000/svg"
 width="1037.000000pt" height="674.000000pt" viewBox="0 0 1037.000000 674.000000"
 preserveAspectRatio="xMidYMid meet">

<g transform="translate(0.000000,674.000000) scale(0.100000,-0.100000)"
fill="#000000" stroke="none">
<path d="M6480 6505 c0 -28 4 -35 19 -35 11 0 22 4 25 9 4 5 -3 7 -14 4 -16
-4 -20 0 -20 21 0 30 24 35 39 9 6 -10 11 -13 11 -7 0 16 -22 34 -42 34 -14 0
-18 -8 -18 -35z"/>
<path d="M6674 6526 c-11 -29 0 -51 26 -51 21 0 25 5 25 30 0 24 -5 31 -23 33
-13 2 -24 -3 -28 -12z m41 -21 c0 -11 -8 -21 -17 -23 -14 -3 -18 3 -18 23 0
20 4 26 18 23 9 -2 17 -12 17 -23z"/>
<path d="M6917 6519 c-10 -13 -16 -16 -19 -8 -6 17 -38 4 -38 -16 0 -20 30
-32 40 -16 6 10 12 10 28 0 15 -10 25 -10 32 -3 8 8 4 10 -12 10 -17 -1 -23 5
-23 19 0 14 6 20 22 19 12 0 20 3 17 8 -9 15 -33 8 -47 -13z m-25 -24 c0 -5
-5 -11 -11 -13 -6 -2 -11 4 -11 13 0 9 5 15 11 13 6 -2 11 -8 11 -13z"/>
<path d="M7038 6528 c-3 -7 -17 -12 -31 -10 -24 1 -27 -2 -26 -26 2 -23 2 -24
6 -4 5 27 19 29 26 2 3 -11 12 -20 21 -20 12 0 16 10 16 35 0 36 -5 45 -12 23z
m2 -33 c0 -8 -4 -15 -10 -15 -5 0 -10 7 -10 15 0 8 5 15 10 15 6 0 10 -7 10
-15z"/>
<path d="M6558 6513 c7 -3 16 -2 19 1 4 3 -2 6 -13 5 -11 0 -14 -3 -6 -6z"/>
<path d="M6634 6511 c18 -7 18 -8 3 -14 -23 -9 -21 -27 3 -27 15 0 20 7 20 25
0 19 -5 25 -22 24 -21 0 -21 -1 -4 -8z"/>
<path d="M6740 6495 c0 -14 2 -25 4 -25 2 0 6 11 8 25 3 14 1 25 -3 25 -5 0
-9 -11 -9 -25z"/>
<path d="M6778 6513 c7 -3 16 -2 19 1 4 3 -2 6 -13 5 -11 0 -14 -3 -6 -6z"/>
<path d="M6820 6495 c0 -14 2 -25 4 -25 2 0 6 11 8 25 3 14 1 25 -3 25 -5 0
-9 -11 -9 -25z"/>
<path d="M7062 6495 c0 -16 2 -22 5 -12 2 9 2 23 0 30 -3 6 -5 -1 -5 -18z"/>
<path d="M7081 6493 c1 -23 2 -24 6 -5 2 12 8 22 13 22 5 0 11 -10 13 -22 5
-20 5 -20 4 2 -1 15 -9 26 -19 28 -14 3 -18 -3 -17 -25z"/>
<path d="M7130 6496 c0 -20 5 -26 23 -25 21 0 21 1 2 9 -18 8 -18 9 -2 9 23 1
17 25 -6 29 -12 3 -17 -4 -17 -22z"/>
<path d="M6547 6494 c-10 -11 3 -24 23 -24 13 0 17 5 14 15 -6 15 -26 20 -37
9z"/>
<path d="M6767 6494 c-10 -11 3 -24 23 -24 13 0 17 5 14 15 -6 15 -26 20 -37
9z"/>
<path d="M5663 6445 c0 -22 2 -30 4 -17 2 12 2 30 0 40 -3 9 -5 -1 -4 -23z"/>
<path d="M5696 6460 c-20 -21 -15 -50 9 -50 11 0 15 10 15 35 0 40 1 40 -24
15z m14 -25 c0 -8 -4 -15 -10 -15 -5 0 -10 7 -10 15 0 8 5 15 10 15 6 0 10 -7
10 -15z"/>
<path d="M5777 6369 c-46 -27 -40 -97 9 -121 16 -7 73 -75 136 -163 l109 -150
-114 -5 c-76 -3 -120 -10 -131 -19 -13 -11 -16 -32 -16 -107 l0 -94 -346 0
-346 0 -259 91 c-142 50 -265 89 -272 87 -39 -9 -527 -183 -527 -188 0 -3 96
-38 213 -79 116 -41 236 -83 265 -93 l53 -20 -6 -581 c-3 -320 -8 -601 -11
-624 l-5 -43 -129 0 -129 0 -15 53 c-53 183 -106 377 -106 385 0 6 9 14 20 17
42 13 38 99 -5 115 -55 21 -110 -33 -87 -85 7 -14 22 -29 35 -34 20 -8 30 -36
80 -214 31 -112 57 -212 57 -221 0 -14 -17 -16 -125 -16 -125 0 -125 0 -135
-26 -6 -14 -10 -61 -10 -106 0 -60 -3 -79 -12 -76 -7 3 -110 38 -228 78 -118
40 -219 80 -225 88 -36 55 -80 67 -115 32 -41 -41 -10 -110 49 -110 20 0 35 8
49 26 l19 27 231 -77 232 -78 0 -53 c0 -43 -4 -55 -17 -59 -10 -2 -141 -39
-292 -82 l-274 -77 -20 27 c-13 19 -28 26 -51 26 -79 0 -91 -101 -15 -125 23
-8 69 19 76 44 3 12 77 36 286 95 155 43 287 81 293 83 7 2 14 -13 17 -39 3
-23 13 -48 23 -55 13 -10 81 -13 271 -13 l253 0 -2 -356 -3 -355 -290 -125
-290 -124 -737 0 -738 0 0 88 c0 140 58 127 -543 130 -326 2 -524 -1 -541 -7
-23 -9 -26 -16 -26 -56 0 -25 -4 -45 -9 -45 -4 0 -154 34 -332 75 -305 71
-349 86 -349 115 0 16 -51 29 -75 20 -54 -21 -56 -96 -2 -121 30 -13 77 4 84
31 3 11 8 20 12 20 12 0 656 -152 663 -157 14 -8 9 -260 -4 -270 -7 -5 -193
-77 -413 -161 -348 -131 -406 -150 -442 -145 -33 4 -45 1 -62 -16 -26 -26 -27
-65 -1 -91 45 -45 115 -8 108 56 -2 19 -3 34 -3 34 1 0 185 70 410 155 224 85
409 155 411 155 2 0 4 -7 4 -15 0 -33 50 -36 567 -33 601 3 543 -10 543 130
l0 88 738 0 737 0 292 -125 c160 -69 297 -125 303 -125 6 0 74 27 152 60 77
33 145 60 151 60 7 0 131 -49 277 -108 l265 -109 -3 -31 c-4 -37 34 -82 68
-82 29 0 60 35 60 68 0 42 -29 64 -81 60 -36 -2 -89 15 -301 102 -142 58 -258
108 -258 111 0 3 63 33 140 65 77 32 140 61 140 64 0 3 -63 32 -140 64 -78 33
-137 63 -133 67 4 4 145 54 313 112 l305 104 26 -28 c30 -33 54 -36 87 -13 45
31 19 114 -37 114 -31 0 -61 -18 -61 -36 0 -20 -34 -33 -376 -149 l-291 -99
-144 61 -144 61 -3 356 -2 356 253 0 c203 0 257 3 273 14 17 13 19 30 22 198
2 110 -1 194 -7 211 l-11 27 -266 0 -267 0 7 622 c4 343 9 624 10 626 2 1 118
43 259 92 l255 90 346 0 346 0 0 -94 c0 -87 2 -96 22 -110 20 -14 87 -16 535
-16 608 0 553 -13 553 130 l0 90 358 0 357 0 298 -127 299 -127 -6 -70 c-3
-39 -8 -294 -12 -566 -3 -272 -8 -503 -10 -512 -5 -17 -26 -18 -264 -18 -256
0 -259 0 -274 -22 -13 -18 -16 -56 -16 -203 0 -147 3 -185 16 -203 15 -22 18
-22 275 -22 l259 0 0 -264 0 -263 -301 -129 c-208 -88 -297 -131 -288 -137 8
-5 142 -64 299 -131 l285 -122 3 -291 2 -292 -259 -3 c-197 -2 -263 -6 -273
-16 -19 -19 -19 -405 0 -424 9 -9 53 -14 138 -16 l125 -4 -6 -151 c-7 -152 -7
-152 -36 -175 -47 -38 -36 -99 22 -117 29 -10 73 24 77 59 4 29 -21 66 -45 66
-15 0 -16 36 -6 208 l6 112 267 0 268 0 7 -172 c6 -134 5 -173 -5 -176 -48
-16 -64 -78 -30 -112 41 -41 110 -10 110 48 0 29 -26 62 -48 62 -8 0 -12 23
-12 68 0 38 -3 116 -6 175 l-7 105 126 4 c86 2 130 7 139 16 19 19 19 405 0
424 -10 10 -76 14 -273 16 l-259 3 2 292 3 291 285 122 c157 67 291 126 299
131 10 6 -79 48 -288 137 l-301 128 0 264 0 264 259 0 c257 0 260 0 275 22 9
12 16 35 16 50 0 16 2 28 4 28 2 0 112 -53 246 -119 197 -97 245 -124 261
-150 15 -25 25 -31 52 -31 61 0 90 67 47 110 -28 28 -58 25 -88 -8 l-26 -28
-248 120 -248 121 0 55 1 55 285 131 285 132 29 -29 c34 -34 49 -36 84 -8 48
38 23 112 -39 111 -27 0 -65 -27 -65 -47 0 -9 -472 -236 -565 -271 -13 -5 -15
7 -15 78 0 136 18 128 -292 128 l-260 0 7 503 c4 276 10 540 14 586 l6 83 298
126 c163 69 297 129 297 132 0 5 -565 248 -598 257 -10 2 -149 -52 -311 -121
l-294 -126 -359 0 -358 0 0 90 c0 126 -4 130 -155 130 -88 0 -115 3 -115 13 0
7 14 76 30 153 21 94 36 143 48 151 36 26 42 35 42 61 0 42 -22 65 -60 65 -35
0 -70 -31 -70 -62 0 -23 28 -61 46 -61 18 0 18 -1 -19 -170 l-32 -145 -275 -2
-275 -3 -100 141 c-127 180 -121 166 -94 188 61 49 -6 149 -74 110z m921 -15
c24 -17 30 -62 10 -82 -37 -37 -113 12 -89 57 10 18 37 40 51 41 3 0 16 -7 28
-16z m1785 -526 c158 -67 287 -125 287 -128 0 -3 -130 -61 -289 -129 l-290
-124 -290 124 c-160 68 -291 126 -291 129 0 5 558 247 575 249 6 1 139 -54
298 -121z m-1625 70 c18 -18 17 -382 -2 -397 -9 -8 -160 -10 -542 -9 l-529 3
-3 195 c-1 107 0 200 2 207 7 18 1056 19 1074 1z m-2050 -105 c138 -48 252
-90 252 -93 0 -3 -113 -45 -252 -93 l-252 -88 -253 88 c-139 48 -253 91 -253
94 0 5 99 39 114 39 5 0 5 -7 2 -16 -4 -9 1 -27 9 -40 27 -42 75 -25 75 26 0
14 -5 31 -12 38 -6 6 -10 14 -7 16 4 4 305 113 319 116 3 0 119 -39 258 -87z
m-574 -65 c14 -23 -3 -53 -30 -53 -20 0 -31 33 -20 61 7 19 35 14 50 -8z m-66
-914 c24 -17 30 -62 10 -82 -37 -37 -113 12 -89 57 10 18 37 40 51 41 3 0 16
-7 28 -16z m-686 -571 c34 -31 11 -93 -35 -93 -51 0 -75 66 -35 94 29 20 47
20 70 -1z m5216 9 c9 -7 12 -56 10 -213 l-3 -204 -535 0 -535 0 -3 204 c-2
157 1 206 10 213 7 4 245 8 528 8 283 0 521 -4 528 -8z m-3620 -207 c2 -179 1
-201 -15 -212 -22 -17 -1013 -19 -1044 -3 -18 10 -19 23 -19 209 0 109 3 201
7 204 3 4 245 6 537 5 l531 -3 3 -200z m-1714 -251 c22 -21 20 -50 -4 -74 -24
-24 -38 -25 -68 -4 -41 29 -19 94 33 94 13 0 31 -7 39 -16z m5964 -70 c24 -17
30 -62 10 -82 -7 -7 -24 -12 -40 -12 -55 0 -75 80 -25 100 30 12 30 12 55 -6z
m-862 -566 c156 -67 281 -125 277 -129 -5 -4 -135 -62 -290 -129 l-283 -121
-282 121 c-156 67 -286 125 -291 129 -7 7 545 250 571 251 7 0 141 -55 298
-122z m-2858 80 c18 -18 14 -63 -8 -83 -45 -40 -109 20 -75 71 17 26 62 33 83
12z m-776 -270 c158 -67 288 -125 288 -128 0 -3 -130 -61 -290 -129 l-290
-123 -290 123 c-159 68 -290 126 -290 129 0 6 557 247 575 249 5 1 139 -54
297 -121z m-2382 63 c15 -29 13 -363 -2 -384 -12 -16 -54 -17 -543 -15 l-530
3 -3 195 c-1 107 0 200 2 207 4 10 114 13 535 13 514 0 531 -1 541 -19z m3038
-553 c21 -21 14 -66 -13 -84 -51 -33 -104 21 -71 71 18 27 63 34 84 13z
m-4976 -135 c22 -20 23 -51 1 -75 -20 -22 -42 -23 -71 -2 -26 18 -28 50 -5 76
20 22 51 23 75 1z m8193 -383 l0 -205 -535 0 -535 0 -3 195 c-1 107 0 200 2
207 4 11 111 13 538 11 l533 -3 0 -205z m-211 -606 c22 -21 20 -57 -4 -79 -46
-41 -116 29 -75 75 22 24 58 26 79 4z"/>
<path d="M7800 5710 l0 -51 33 3 c31 3 32 5 32 48 0 43 -1 45 -32 48 l-33 3 0
-51z m53 25 c1 -5 -6 -11 -15 -13 -11 -2 -18 3 -18 13 0 17 30 18 33 0z m7
-45 c0 -13 -7 -20 -20 -20 -13 0 -20 7 -20 20 0 13 7 20 20 20 13 0 20 -7 20
-20z"/>
<path d="M7990 5710 c0 -27 5 -50 10 -50 6 0 10 23 10 50 0 28 -4 50 -10 50
-5 0 -10 -22 -10 -50z"/>
<path d="M8020 5750 c0 -5 5 -10 10 -10 6 0 10 5 10 10 0 6 -4 10 -10 10 -5 0
-10 -4 -10 -10z"/>
<path d="M8241 5746 c-31 -37 9 -103 47 -80 36 23 23 94 -18 94 -10 0 -23 -6
-29 -14z m54 -36 c0 -28 -4 -36 -22 -38 -14 -2 -23 3 -28 17 -10 34 4 63 28
59 18 -2 22 -10 22 -38z"/>
<path d="M8420 5745 c0 -8 -9 -15 -19 -15 -24 0 -37 -36 -21 -55 7 -8 21 -15
31 -15 16 0 19 8 19 50 0 28 -2 50 -5 50 -3 0 -5 -7 -5 -15z m-5 -50 c0 -10
-6 -20 -12 -22 -8 -3 -13 5 -13 22 0 17 5 25 13 23 6 -3 12 -13 12 -23z"/>
<path d="M8550 5750 c0 -5 5 -10 10 -10 6 0 10 5 10 10 0 6 -4 10 -10 10 -5 0
-10 -4 -10 -10z"/>
<path d="M8128 5740 c-5 -17 3 -80 11 -80 7 0 6 79 -2 86 -3 3 -7 0 -9 -6z"/>
<path d="M8162 5708 c2 -23 8 -43 13 -45 8 -2 11 30 6 80 -1 4 -6 7 -12 7 -6
0 -9 -17 -7 -42z"/>
<path d="M7893 5695 c0 -22 2 -30 4 -17 2 12 2 30 0 40 -3 9 -5 -1 -4 -23z"/>
<path d="M7927 5723 c-15 -15 -7 -55 13 -60 11 -3 20 -10 20 -15 0 -6 -9 -8
-20 -5 -11 3 -18 1 -14 -4 19 -31 54 8 54 60 0 26 -4 31 -23 31 -13 0 -27 -3
-30 -7z m33 -28 c0 -26 -14 -33 -25 -15 -9 14 1 40 15 40 5 0 10 -11 10 -25z"/>
<path d="M8020 5695 c0 -19 5 -35 10 -35 6 0 10 16 10 35 0 19 -4 35 -10 35
-5 0 -10 -16 -10 -35z"/>
<path d="M8056 5712 c-4 -11 -4 -27 0 -36 7 -18 39 -22 50 -5 4 7 0 9 -14 5
-11 -4 -23 -2 -27 4 -4 6 4 10 20 10 20 0 26 4 23 18 -5 25 -45 28 -52 4z m39
-2 c3 -5 -3 -10 -15 -10 -12 0 -18 5 -15 10 3 6 10 10 15 10 5 0 12 -4 15 -10z"/>
<path d="M8203 5695 c0 -22 2 -30 4 -17 2 12 2 30 0 40 -3 9 -5 -1 -4 -23z"/>
<path d="M8330 5695 c0 -19 5 -35 10 -35 6 0 10 13 10 29 0 16 6 32 13 34 6 3
2 6 -10 6 -20 1 -23 -4 -23 -34z"/>
<path d="M8453 5695 c0 -22 2 -30 4 -17 2 12 2 30 0 40 -3 9 -5 -1 -4 -23z"/>
<path d="M8481 5693 c1 -36 2 -36 8 -9 9 42 29 44 34 4 l4 -33 1 38 c2 33 0
37 -23 37 -22 0 -25 -4 -24 -37z"/>
<path d="M8550 5695 c0 -19 5 -35 10 -35 6 0 10 16 10 35 0 19 -4 35 -10 35
-5 0 -10 -16 -10 -35z"/>
<path d="M6154 5735 c-15 -23 -15 -27 0 -50 28 -43 76 -27 76 25 0 52 -48 68
-76 25z m60 -7 c14 -23 -3 -53 -30 -53 -20 0 -31 33 -20 61 7 19 35 14 50 -8z"/>
<path d="M6340 5745 c0 -8 -9 -15 -19 -15 -22 0 -35 -28 -25 -54 3 -9 17 -16
30 -16 22 0 24 4 24 50 0 28 -2 50 -5 50 -3 0 -5 -7 -5 -15z m-3 -41 c8 -22
-15 -44 -26 -25 -10 16 -4 41 10 41 5 0 12 -7 16 -16z"/>
<path d="M6360 5750 c0 -5 5 -10 10 -10 6 0 10 5 10 10 0 6 -4 10 -10 10 -5 0
-10 -4 -10 -10z"/>
<path d="M6251 5693 c2 -35 2 -35 6 -8 3 16 10 33 16 37 8 5 6 8 -5 8 -14 0
-18 -8 -17 -37z"/>
<path d="M6360 5695 c0 -19 5 -35 10 -35 6 0 10 16 10 35 0 19 -4 35 -10 35
-5 0 -10 -16 -10 -35z"/>
<path d="M6390 5696 c0 -20 5 -36 10 -36 6 0 10 14 10 31 0 39 22 34 32 -7 6
-27 6 -27 5 6 -2 30 -6 35 -29 38 -26 3 -28 1 -28 -32z"/>
<path d="M6473 5695 c0 -22 2 -30 4 -17 2 12 2 30 0 40 -3 9 -5 -1 -4 -23z"/>
<path d="M4350 5746 c0 -7 -9 -16 -21 -19 -16 -4 -20 -12 -17 -34 2 -22 9 -29
31 -31 26 -3 27 -2 27 47 0 28 -4 51 -10 51 -5 0 -10 -6 -10 -14z m0 -51 c0
-26 -14 -33 -25 -15 -9 14 1 40 15 40 5 0 10 -11 10 -25z"/>
<path d="M4380 5750 c0 -5 5 -10 10 -10 6 0 10 5 10 10 0 6 -4 10 -10 10 -5 0
-10 -4 -10 -10z"/>
<path d="M4563 5721 c2 -47 22 -69 51 -58 12 5 16 18 14 54 l-1 48 -6 -45 c-8
-60 -37 -69 -46 -13 -10 58 -14 63 -12 14z"/>
<path d="M4658 5740 c-5 -17 3 -80 11 -80 7 0 6 79 -2 86 -3 3 -7 0 -9 -6z"/>
<path d="M4838 5740 c-9 -28 4 -80 21 -80 13 0 13 2 2 9 -8 5 -12 19 -9 34 5
28 -6 59 -14 37z"/>
<path d="M4271 5693 c2 -35 2 -35 6 -8 3 16 10 33 16 37 8 5 6 8 -5 8 -14 0
-18 -8 -17 -37z"/>
<path d="M4380 5695 c0 -19 5 -35 10 -35 6 0 10 16 10 35 0 19 -4 35 -10 35
-5 0 -10 -16 -10 -35z"/>
<path d="M4410 5696 c0 -20 5 -36 10 -36 6 0 10 14 10 30 0 17 5 30 10 30 6 0
10 -13 10 -30 0 -16 5 -30 11 -30 6 0 9 14 7 33 -2 27 -8 33 -30 35 -26 3 -28
1 -28 -32z"/>
<path d="M4494 5716 c-10 -26 1 -51 24 -54 12 -2 22 1 22 6 0 6 -9 8 -20 5
-11 -3 -20 0 -20 6 0 6 11 11 25 11 23 0 24 2 15 20 -12 23 -38 26 -46 6z m36
-6 c0 -5 -7 -10 -15 -10 -8 0 -15 5 -15 10 0 6 7 10 15 10 8 0 15 -4 15 -10z"/>
<path d="M4696 5712 c-4 -11 -4 -27 0 -36 7 -18 39 -22 50 -5 4 7 0 9 -14 5
-11 -4 -23 -2 -27 4 -4 6 4 10 20 10 20 0 26 4 23 18 -5 25 -45 28 -52 4z m39
-2 c3 -5 -3 -10 -15 -10 -12 0 -18 5 -15 10 3 6 10 10 15 10 5 0 12 -4 15 -10z"/>
<path d="M4760 5696 c0 -20 5 -36 10 -36 6 0 10 14 10 31 0 39 22 34 32 -7 6
-27 6 -27 5 6 -2 30 -6 35 -29 38 -26 3 -28 1 -28 -32z"/>
<path d="M4880 5716 c-23 -28 17 -73 42 -48 8 8 5 9 -11 5 -12 -3 -21 -1 -21
6 0 6 9 11 21 11 14 0 19 5 17 17 -4 23 -31 28 -48 9z m35 -6 c3 -5 -1 -10 -9
-10 -9 0 -16 5 -16 10 0 6 4 10 9 10 6 0 13 -4 16 -10z"/>
<path d="M7670 4050 l0 -51 33 3 c31 3 32 5 32 48 0 43 -1 45 -32 48 l-33 3 0
-51z m50 25 c0 -8 -9 -15 -20 -15 -11 0 -20 7 -20 15 0 8 9 15 20 15 11 0 20
-7 20 -15z m5 -45 c0 -8 -10 -16 -22 -18 -18 -3 -23 2 -23 18 0 16 5 21 23 18
12 -2 22 -10 22 -18z"/>
<path d="M7860 4050 c0 -27 5 -50 10 -50 6 0 10 23 10 50 0 28 -4 50 -10 50
-5 0 -10 -22 -10 -50z"/>
<path d="M8111 4063 c-7 -21 -15 -45 -17 -53 -4 -11 -1 -10 9 3 17 21 46 22
53 2 4 -8 10 -15 15 -15 4 0 -1 23 -13 50 -11 28 -24 50 -28 50 -4 0 -12 -17
-19 -37z m27 -22 c-15 -5 -21 7 -13 26 7 17 8 17 15 -2 4 -11 3 -22 -2 -24z"/>
<path d="M7998 4080 c-6 -18 3 -80 11 -80 4 0 6 14 3 30 -3 18 0 30 7 30 6 0
11 -13 11 -30 0 -22 5 -30 18 -30 13 0 14 2 4 9 -8 4 -13 19 -12 32 1 13 2 31
1 39 -1 13 -2 13 -11 0 -8 -12 -11 -13 -19 -1 -6 10 -10 10 -13 1z"/>
<path d="M8492 4048 c2 -23 8 -43 13 -45 8 -2 11 30 6 80 -1 4 -6 7 -12 7 -6
0 -9 -17 -7 -42z"/>
<path d="M8602 4048 c2 -23 8 -43 13 -45 8 -2 11 30 6 80 -1 4 -6 7 -12 7 -6
0 -9 -17 -7 -42z"/>
<path d="M7763 4035 c0 -22 2 -30 4 -17 2 12 2 30 0 40 -3 9 -5 -1 -4 -23z"/>
<path d="M7797 4063 c-15 -15 -7 -55 13 -60 11 -3 20 -10 20 -15 0 -6 -9 -8
-20 -5 -11 3 -20 1 -20 -5 0 -5 10 -8 23 -6 19 3 22 10 25 51 3 40 1 47 -16
47 -10 0 -22 -3 -25 -7z m33 -28 c0 -16 -6 -25 -15 -25 -9 0 -15 9 -15 25 0
16 6 25 15 25 9 0 15 -9 15 -25z"/>
<path d="M7893 4035 c0 -22 2 -30 4 -17 2 12 2 30 0 40 -3 9 -5 -1 -4 -23z"/>
<path d="M7924 4056 c-15 -39 23 -74 50 -46 8 9 6 11 -11 6 -12 -4 -24 -2 -28
4 -4 6 4 10 19 10 28 0 33 9 14 28 -16 16 -37 15 -44 -2z m36 -6 c0 -5 -7 -10
-16 -10 -8 0 -12 5 -9 10 3 6 10 10 16 10 5 0 9 -4 9 -10z"/>
<path d="M8073 4035 c0 -22 2 -30 4 -17 2 12 2 30 0 40 -3 9 -5 -1 -4 -23z"/>
<path d="M8190 4055 c-23 -28 17 -72 42 -47 8 8 5 9 -11 5 -18 -4 -21 -1 -21
22 0 22 3 25 21 20 15 -5 19 -4 15 4 -10 15 -31 14 -46 -4z"/>
<path d="M8257 4063 c-15 -15 -7 -55 13 -60 11 -3 20 -12 20 -19 0 -8 5 -14
10 -14 6 0 10 23 10 50 0 46 -2 50 -23 50 -13 0 -27 -3 -30 -7z m33 -28 c0
-26 -14 -33 -25 -15 -9 14 1 40 15 40 5 0 10 -11 10 -25z"/>
<path d="M8320 4048 c0 -33 12 -47 38 -45 18 1 22 7 21 37 -1 34 -1 34 -8 6
-9 -41 -31 -46 -31 -7 0 17 -4 31 -10 31 -5 0 -10 -10 -10 -22z"/>
<path d="M8403 4035 c0 -22 2 -30 4 -17 2 12 2 30 0 40 -3 9 -5 -1 -4 -23z"/>
<path d="M8430 4056 c0 -7 10 -21 23 -30 l22 -17 -30 6 c-23 5 -27 4 -19 -5
15 -15 46 -10 52 8 2 7 -5 16 -17 19 -12 3 -21 10 -21 15 0 6 7 8 15 4 8 -3
15 -1 15 4 0 6 -9 10 -20 10 -11 0 -20 -6 -20 -14z"/>
<path d="M8536 4061 c-4 -5 3 -7 14 -4 11 3 20 0 20 -6 0 -6 -9 -11 -20 -11
-13 0 -20 -7 -20 -20 0 -15 6 -19 25 -18 21 2 25 7 25 35 0 26 -4 33 -19 33
-11 0 -22 -4 -25 -9z m29 -41 c-3 -5 -10 -10 -16 -10 -5 0 -9 5 -9 10 0 6 7
10 16 10 8 0 12 -4 9 -10z"/>
<path d="M8643 4035 c0 -22 2 -30 4 -17 2 12 2 30 0 40 -3 9 -5 -1 -4 -23z"/>
<path d="M4374 4055 c1 -49 2 -50 31 -50 29 0 30 1 31 50 l2 50 -7 -45 c-5
-36 -10 -45 -26 -45 -16 0 -21 9 -26 45 l-7 45 2 -50z"/>
<path d="M4680 4090 c0 -5 5 -10 10 -10 6 0 10 5 10 10 0 6 -4 10 -10 10 -5 0
-10 -4 -10 -10z"/>
<path d="M4462 4048 c2 -23 8 -43 13 -45 8 -2 11 30 6 80 -1 4 -6 7 -12 7 -6
0 -9 -17 -7 -42z"/>
<path d="M4648 4080 c-5 -17 3 -80 11 -80 7 0 6 79 -2 86 -3 3 -7 0 -9 -6z"/>
<path d="M4504 4056 c-15 -39 23 -74 50 -46 8 9 6 11 -11 6 -12 -4 -24 -2 -28
4 -4 6 4 10 19 10 28 0 33 9 14 28 -16 16 -37 15 -44 -2z m36 -6 c0 -5 -7 -10
-16 -10 -8 0 -12 5 -9 10 3 6 10 10 16 10 5 0 9 -4 9 -10z"/>
<path d="M4570 4036 c0 -20 5 -36 10 -36 6 0 10 14 10 30 0 17 5 30 10 30 6 0
10 -13 10 -30 0 -16 5 -30 11 -30 6 0 9 14 7 33 -2 27 -8 33 -30 35 -26 3 -28
1 -28 -32z"/>
<path d="M4680 4035 c0 -19 5 -35 10 -35 6 0 10 16 10 35 0 19 -4 35 -10 35
-5 0 -10 -16 -10 -35z"/>
<path d="M7830 3050 l0 -51 33 3 c31 3 32 5 32 48 0 43 -1 45 -32 48 l-33 3 0
-51z m50 25 c0 -8 -9 -15 -20 -15 -11 0 -20 7 -20 15 0 8 9 15 20 15 11 0 20
-7 20 -15z m5 -45 c0 -8 -10 -16 -22 -18 -18 -3 -23 2 -23 18 0 16 5 21 23 18
12 -2 22 -10 22 -18z"/>
<path d="M8020 3050 c0 -27 5 -50 10 -50 6 0 10 23 10 50 0 28 -4 50 -10 50
-5 0 -10 -22 -10 -50z"/>
<path d="M8050 3090 c0 -5 5 -10 10 -10 6 0 10 5 10 10 0 6 -4 10 -10 10 -5 0
-10 -4 -10 -10z"/>
<path d="M8263 3093 c13 -3 17 -15 17 -49 0 -24 5 -44 10 -44 6 0 10 21 10 46
0 44 1 46 25 40 14 -4 25 -2 25 4 0 6 -23 9 -52 9 -29 -1 -45 -3 -35 -6z"/>
<path d="M8158 3080 c-6 -18 3 -80 11 -80 4 0 6 14 3 30 -3 18 0 30 7 30 6 0
11 -13 11 -30 0 -22 5 -30 18 -30 13 0 14 2 4 9 -8 4 -13 19 -12 32 1 13 2 31
1 39 -1 13 -2 13 -11 0 -8 -12 -11 -13 -19 -1 -6 10 -10 10 -13 1z"/>
<path d="M7923 3035 c0 -22 2 -30 4 -17 2 12 2 30 0 40 -3 9 -5 -1 -4 -23z"/>
<path d="M7957 3063 c-15 -15 -7 -55 13 -60 11 -3 20 -10 20 -15 0 -6 -9 -8
-20 -5 -11 3 -20 1 -20 -5 0 -5 10 -8 23 -6 19 3 22 10 25 51 3 40 1 47 -16
47 -10 0 -22 -3 -25 -7z m33 -28 c0 -16 -6 -25 -15 -25 -9 0 -15 9 -15 25 0
16 6 25 15 25 9 0 15 -9 15 -25z"/>
<path d="M8050 3035 c0 -19 5 -35 10 -35 6 0 10 16 10 35 0 19 -4 35 -10 35
-5 0 -10 -16 -10 -35z"/>
<path d="M8084 3056 c-15 -39 23 -74 50 -46 8 9 6 11 -11 6 -12 -4 -24 -2 -28
4 -4 6 4 10 19 10 28 0 33 9 14 28 -16 16 -37 15 -44 -2z m36 -6 c0 -5 -7 -10
-16 -10 -8 0 -12 5 -9 10 3 6 10 10 16 10 5 0 9 -4 9 -10z"/>
<path d="M8233 3035 c0 -22 2 -30 4 -17 2 12 2 30 0 40 -3 9 -5 -1 -4 -23z"/>
<path d="M8330 3035 c0 -19 5 -35 10 -35 6 0 10 16 10 35 0 19 -4 35 -10 35
-5 0 -10 -16 -10 -35z"/>
<path d="M8360 3021 c0 -28 5 -51 10 -51 6 0 10 6 10 14 0 7 9 16 21 19 16 4
20 12 17 34 -2 22 -9 29 -30 31 -27 3 -28 2 -28 -47z m45 14 c0 -10 -6 -20
-12 -22 -8 -3 -13 5 -13 22 0 17 5 25 13 23 6 -3 12 -13 12 -23z"/>
<path d="M8440 3055 c-17 -21 -2 -50 26 -50 14 0 19 7 19 30 0 34 -24 45 -45
20z m35 -20 c0 -10 -6 -20 -12 -22 -8 -3 -13 5 -13 22 0 17 5 25 13 23 6 -3
12 -13 12 -23z"/>
<path d="M4100 2851 c0 -47 2 -51 24 -51 28 0 51 24 40 42 -5 7 -8 22 -9 33 0
14 -8 21 -27 23 -27 3 -28 2 -28 -47z m50 24 c0 -8 -9 -15 -20 -15 -11 0 -20
7 -20 15 0 8 9 15 20 15 11 0 20 -7 20 -15z m0 -45 c0 -13 -7 -20 -20 -20 -13
0 -20 7 -20 20 0 13 7 20 20 20 13 0 20 -7 20 -20z"/>
<path d="M4180 2890 c0 -5 5 -10 10 -10 6 0 10 5 10 10 0 6 -4 10 -10 10 -5 0
-10 -4 -10 -10z"/>
<path d="M4293 2850 c0 -30 2 -43 4 -27 2 15 2 39 0 55 -2 15 -4 2 -4 -28z"/>
<path d="M4310 2890 c0 -5 5 -10 10 -10 6 0 10 5 10 10 0 6 -4 10 -10 10 -5 0
-10 -4 -10 -10z"/>
<path d="M4490 2890 c0 -5 5 -10 10 -10 6 0 10 5 10 10 0 6 -4 10 -10 10 -5 0
-10 -4 -10 -10z"/>
<path d="M4530 2881 c-23 -44 1 -88 43 -77 15 3 27 11 27 17 0 8 -5 7 -15 -1
-23 -19 -45 -4 -45 30 0 36 22 49 48 29 15 -13 16 -12 3 4 -18 23 -48 22 -61
-2z"/>
<path d="M4850 2850 c0 -27 5 -50 10 -50 6 0 10 23 10 50 0 28 -4 50 -10 50
-5 0 -10 -22 -10 -50z"/>
<path d="M4883 2850 c0 -30 2 -43 4 -27 2 15 2 39 0 55 -2 15 -4 2 -4 -28z"/>
<path d="M4419 2881 c-10 -29 3 -81 20 -80 10 0 11 2 4 6 -19 7 -16 53 2 53
10 0 15 -10 15 -30 0 -16 3 -30 8 -30 8 0 7 78 -2 87 -3 4 -6 1 -6 -5 0 -16
-27 -15 -32 1 -4 9 -6 9 -9 -2z"/>
<path d="M4180 2835 c0 -19 5 -35 10 -35 6 0 10 16 10 35 0 19 -4 35 -10 35
-5 0 -10 -16 -10 -35z"/>
<path d="M4215 2851 c-9 -29 5 -53 27 -48 12 4 18 1 15 -6 -2 -7 -15 -11 -28
-9 -17 2 -21 0 -12 -9 6 -6 19 -9 29 -7 15 2 20 14 22 51 3 44 2 47 -22 47
-15 0 -27 -7 -31 -19z m42 -7 c8 -22 -15 -44 -26 -25 -10 16 -4 41 10 41 5 0
12 -7 16 -16z"/>
<path d="M4310 2835 c0 -19 5 -35 10 -35 6 0 10 16 10 35 0 19 -4 35 -10 35
-5 0 -10 -16 -10 -35z"/>
<path d="M4350 2856 c-23 -28 17 -73 42 -48 8 8 5 9 -11 5 -12 -3 -21 -1 -21
6 0 6 9 11 21 11 14 0 19 5 17 17 -4 23 -31 28 -48 9z m35 -6 c3 -5 -1 -10 -9
-10 -9 0 -16 5 -16 10 0 6 4 10 9 10 6 0 13 -4 16 -10z"/>
<path d="M4490 2835 c0 -19 5 -35 10 -35 6 0 10 16 10 35 0 19 -4 35 -10 35
-5 0 -10 -16 -10 -35z"/>
<path d="M4626 2861 c-4 -5 3 -7 14 -4 11 3 20 0 20 -6 0 -6 -9 -11 -20 -11
-13 0 -20 -7 -20 -20 0 -15 6 -19 25 -18 21 2 25 7 25 35 0 26 -4 33 -19 33
-11 0 -22 -4 -25 -9z m29 -41 c-3 -5 -10 -10 -16 -10 -5 0 -9 5 -9 10 0 6 7
10 16 10 8 0 12 -4 9 -10z"/>
<path d="M4691 2833 c1 -28 3 -31 6 -13 3 14 10 31 15 38 8 9 6 12 -6 12 -12
0 -16 -9 -15 -37z"/>
<path d="M4730 2835 c0 -19 5 -35 10 -35 6 0 10 13 10 29 0 16 6 32 13 34 6 3
2 6 -10 6 -20 1 -23 -4 -23 -34z"/>
<path d="M4784 2856 c-10 -26 1 -51 24 -54 12 -2 22 1 22 6 0 6 -9 8 -20 5
-11 -3 -20 0 -20 6 0 6 11 11 25 11 23 0 24 2 15 20 -12 23 -38 26 -46 6z m36
-6 c0 -5 -7 -10 -15 -10 -8 0 -15 5 -15 10 0 6 7 10 15 10 8 0 15 -4 15 -10z"/>
<path d="M4917 2864 c-13 -13 -7 -55 9 -61 24 -9 51 23 38 45 -12 19 -36 27
-47 16z m33 -29 c0 -26 -14 -33 -25 -15 -9 14 1 40 15 40 5 0 10 -11 10 -25z"/>
<path d="M1700 2849 l0 -50 33 3 c24 2 33 8 35 26 2 13 -2 22 -9 22 -10 0 -10
3 -2 11 18 18 3 39 -28 39 -28 0 -29 -1 -29 -51z m50 26 c0 -8 -9 -15 -20 -15
-11 0 -20 7 -20 15 0 8 9 15 20 15 11 0 20 -7 20 -15z m5 -45 c0 -8 -10 -16
-22 -18 -18 -3 -23 2 -23 18 0 16 5 21 23 18 12 -2 22 -10 22 -18z"/>
<path d="M1893 2850 c0 -30 2 -43 4 -27 2 15 2 39 0 55 -2 15 -4 2 -4 -28z"/>
<path d="M2090 2890 c0 -5 5 -10 10 -10 6 0 10 5 10 10 0 6 -4 10 -10 10 -5 0
-10 -4 -10 -10z"/>
<path d="M2018 2880 c-9 -28 4 -80 21 -80 13 0 13 2 2 9 -8 5 -12 19 -9 34 5
28 -6 59 -14 37z"/>
<path d="M2058 2880 c-5 -17 3 -80 11 -80 7 0 6 79 -2 86 -3 3 -7 0 -9 -6z"/>
<path d="M1793 2835 c0 -22 2 -30 4 -17 2 12 2 30 0 40 -3 9 -5 -1 -4 -23z"/>
<path d="M1815 2851 c-9 -29 5 -53 27 -48 12 4 18 1 15 -6 -2 -7 -12 -11 -21
-11 -9 1 -16 -3 -16 -8 0 -5 10 -8 23 -6 19 3 22 10 25 51 3 44 2 47 -22 47
-15 0 -27 -7 -31 -19z m40 -16 c0 -10 -6 -20 -12 -22 -8 -3 -13 5 -13 22 0 17
5 25 13 23 6 -3 12 -13 12 -23z"/>
<path d="M1923 2835 c0 -22 2 -30 4 -17 2 12 2 30 0 40 -3 9 -5 -1 -4 -23z"/>
<path d="M1954 2856 c-10 -26 1 -51 24 -54 12 -2 22 1 22 6 0 6 -9 8 -20 5
-11 -3 -20 0 -20 6 0 6 11 11 25 11 23 0 24 2 15 20 -12 23 -38 26 -46 6z m36
-6 c0 -5 -7 -10 -15 -10 -8 0 -15 5 -15 10 0 6 7 10 15 10 8 0 15 -4 15 -10z"/>
<path d="M2090 2835 c0 -19 5 -35 10 -35 6 0 10 16 10 35 0 19 -4 35 -10 35
-5 0 -10 -16 -10 -35z"/>
<path d="M7813 2013 c13 -3 17 -15 17 -49 0 -24 5 -44 10 -44 6 0 10 21 10 46
0 44 1 46 25 40 14 -4 25 -2 25 4 0 6 -23 9 -52 9 -29 -1 -45 -3 -35 -6z"/>
<path d="M8060 1970 l0 -51 33 3 c31 3 32 5 32 48 0 43 -1 45 -32 48 l-33 3 0
-51z m50 25 c0 -8 -9 -15 -20 -15 -11 0 -20 7 -20 15 0 8 9 15 20 15 11 0 20
-7 20 -15z m5 -45 c0 -8 -10 -16 -22 -18 -18 -3 -23 2 -23 18 0 16 5 21 23 18
12 -2 22 -10 22 -18z"/>
<path d="M8250 1970 c0 -27 5 -50 10 -50 6 0 10 23 10 50 0 28 -4 50 -10 50
-5 0 -10 -22 -10 -50z"/>
<path d="M8388 2000 c-6 -18 3 -80 11 -80 4 0 6 14 3 30 -3 18 0 30 7 30 6 0
11 -13 11 -30 0 -22 5 -30 18 -30 13 0 14 2 4 9 -8 4 -13 19 -12 32 1 13 2 31
1 39 -1 13 -2 13 -11 0 -8 -12 -11 -13 -19 -1 -6 10 -10 10 -13 1z"/>
<path d="M7880 1955 c0 -19 5 -35 10 -35 6 0 10 16 10 35 0 19 -4 35 -10 35
-5 0 -10 -16 -10 -35z"/>
<path d="M7910 1941 c0 -28 5 -51 10 -51 6 0 10 6 10 14 0 7 9 16 21 19 16 4
20 12 17 34 -2 22 -9 29 -30 31 -27 3 -28 2 -28 -47z m45 14 c0 -10 -6 -20
-12 -22 -8 -3 -13 5 -13 22 0 17 5 25 13 23 6 -3 12 -13 12 -23z"/>
<path d="M7994 1976 c-10 -26 0 -51 21 -51 16 0 20 7 20 30 0 33 -30 49 -41
21z m36 -21 c0 -16 -6 -25 -15 -25 -9 0 -15 9 -15 25 0 16 6 25 15 25 9 0 15
-9 15 -25z"/>
<path d="M8153 1955 c0 -22 2 -30 4 -17 2 12 2 30 0 40 -3 9 -5 -1 -4 -23z"/>
<path d="M8187 1983 c-15 -15 -7 -55 13 -60 11 -3 20 -10 20 -15 0 -6 -9 -8
-20 -5 -11 3 -20 1 -20 -5 0 -5 10 -8 23 -6 19 3 22 10 25 51 3 40 1 47 -16
47 -10 0 -22 -3 -25 -7z m33 -28 c0 -16 -6 -25 -15 -25 -9 0 -15 9 -15 25 0
16 6 25 15 25 9 0 15 -9 15 -25z"/>
<path d="M8283 1955 c0 -22 2 -30 4 -17 2 12 2 30 0 40 -3 9 -5 -1 -4 -23z"/>
<path d="M8314 1976 c-15 -39 23 -74 50 -46 8 9 6 11 -11 6 -12 -4 -24 -2 -28
4 -4 6 4 10 19 10 28 0 33 9 14 28 -16 16 -37 15 -44 -2z m36 -6 c0 -5 -7 -10
-16 -10 -8 0 -12 5 -9 10 3 6 10 10 16 10 5 0 9 -4 9 -10z"/>
<path d="M8464 1976 c-10 -26 0 -51 21 -51 16 0 20 7 20 30 0 33 -30 49 -41
21z m36 -21 c0 -16 -6 -25 -15 -25 -9 0 -15 9 -15 25 0 16 6 25 15 25 9 0 15
-9 15 -25z"/>
<path d="M5468 5905 c-13 -30 3 -75 27 -75 18 0 29 41 21 75 -4 14 -13 25 -21
25 -9 0 -21 -11 -27 -25z m35 -5 c6 -24 -2 -60 -14 -60 -5 0 -9 18 -9 40 0 42
14 54 23 20z"/>
<path d="M5590 5915 c-9 -10 -9 -15 -1 -15 6 0 11 -16 11 -35 0 -19 5 -35 10
-35 6 0 10 23 10 50 0 51 -8 61 -30 35z"/>
<path d="M6988 5875 c-13 -30 3 -75 27 -75 18 0 29 41 21 75 -4 14 -13 25 -21
25 -9 0 -21 -11 -27 -25z m35 -5 c6 -24 -2 -60 -14 -60 -5 0 -9 18 -9 40 0 42
14 54 23 20z"/>
<path d="M7101 5850 l2 -55 7 45 c4 25 4 49 -1 55 -5 5 -8 -13 -8 -45z"/>
<path d="M7160 5863 l0 -38 -20 25 c-24 31 -26 18 -3 -21 25 -41 33 -36 33 21
0 28 -2 50 -5 50 -3 0 -5 -17 -5 -37z"/>
<path d="M3968 4993 c6 -2 18 -2 25 0 6 3 1 5 -13 5 -14 0 -19 -2 -12 -5z"/>
<path d="M4320 4990 c0 -5 -13 -10 -30 -10 -26 0 -30 -3 -29 -27 2 -24 2 -25
6 -5 5 27 23 29 23 2 0 -13 7 -20 20 -20 16 0 20 7 20 35 0 19 -2 35 -5 35 -3
0 -5 -4 -5 -10z m0 -35 c0 -8 -4 -15 -10 -15 -5 0 -10 7 -10 15 0 8 5 15 10
15 6 0 10 -7 10 -15z"/>
<path d="M4024 4971 c18 -7 18 -8 3 -14 -23 -9 -21 -27 3 -27 15 0 20 7 20 25
0 19 -5 25 -22 24 -21 0 -21 -1 -4 -8z"/>
<path d="M4060 4970 c0 -6 8 -14 17 -17 15 -6 14 -7 -3 -13 -13 -5 -5 -8 24
-8 30 -1 42 3 42 14 0 8 -8 14 -17 15 -15 0 -15 2 2 9 16 7 17 9 3 9 -25 1
-31 -16 -11 -28 14 -8 15 -10 3 -10 -23 0 -54 26 -38 32 8 4 7 6 -4 6 -10 1
-18 -4 -18 -9z"/>
<path d="M4151 4963 c-1 -12 4 -25 9 -28 12 -7 12 2 0 30 -8 19 -9 19 -9 -2z"/>
<path d="M4170 4973 c0 -15 29 -49 30 -35 0 7 -7 20 -15 28 -8 9 -15 11 -15 7z"/>
<path d="M4200 4970 c0 -3 6 -15 14 -26 11 -15 17 -16 27 -7 17 17 4 42 -20
40 -12 -1 -21 -4 -21 -7z m40 -15 c0 -8 -4 -15 -10 -15 -5 0 -10 7 -10 15 0 8
5 15 10 15 6 0 10 -7 10 -15z"/>
<path d="M3968 4963 c6 -2 18 -2 25 0 6 3 1 5 -13 5 -14 0 -19 -2 -12 -5z"/>
<path d="M3253 4798 c1 -25 7 -33 22 -33 15 0 20 7 21 30 1 28 1 28 -3 3 -6
-37 -30 -36 -37 2 -6 30 -6 30 -3 -2z"/>
<path d="M3310 4800 c0 -6 8 -14 17 -17 15 -6 14 -7 -3 -13 -12 -5 -2 -7 26
-7 31 0 39 2 25 7 -18 7 -18 8 5 12 l25 5 -25 2 c-23 2 -24 3 -5 11 18 8 18 9
2 9 -10 1 -20 -5 -23 -13 -3 -8 -12 -12 -21 -9 -12 5 -12 7 -1 14 10 7 9 9 -4
9 -10 0 -18 -5 -18 -10z"/>
<path d="M3410 4799 c0 -5 5 -7 10 -4 6 3 10 8 10 11 0 2 -4 4 -10 4 -5 0 -10
-5 -10 -11z"/>
<path d="M3440 4799 c0 -5 4 -8 9 -4 5 3 12 -5 14 -17 4 -20 4 -19 6 5 1 18
-4 27 -14 27 -8 0 -15 -5 -15 -11z"/>
<path d="M3481 4783 c2 -24 2 -25 6 -5 2 12 8 22 13 22 5 0 11 -10 13 -22 4
-20 4 -19 6 5 1 21 -4 27 -19 27 -15 0 -20 -6 -19 -27z"/>
<path d="M3544 4801 c18 -7 18 -8 3 -14 -23 -9 -21 -27 3 -27 15 0 20 7 20 25
0 19 -5 25 -22 24 -21 0 -21 -1 -4 -8z"/>
<path d="M3581 4782 c2 -24 2 -24 6 -4 2 12 8 22 13 22 5 0 11 -10 13 -22 l4
-23 2 23 c0 13 6 20 11 17 6 -3 10 -2 10 3 0 5 -13 9 -30 10 -26 1 -30 -3 -29
-26z"/>
<path d="M3654 4795 c-8 -19 3 -35 24 -34 14 0 13 2 -3 8 -19 8 -18 9 5 13
l25 5 -25 2 c-23 2 -24 3 -5 11 18 8 18 9 2 9 -10 1 -20 -6 -23 -14z"/>
<path d="M3582 4710 c-29 -12 -44 -52 -32 -85 13 -33 52 -51 82 -38 21 9 38
-6 191 -161 122 -123 141 -140 69 -61 -55 61 -130 139 -166 174 -53 53 -63 68
-55 82 11 21 3 64 -14 77 -20 16 -51 21 -75 12z"/>
<path d="M4664 4485 c-8 -34 3 -75 21 -75 9 0 21 11 27 25 13 30 -3 75 -27 75
-8 0 -17 -11 -21 -25z m36 -25 c0 -42 -14 -54 -23 -20 -6 24 2 60 14 60 5 0 9
-18 9 -40z"/>
<path d="M4770 4460 c0 -55 17 -69 22 -17 l3 32 20 -32 c10 -18 23 -33 27 -33
4 0 7 24 7 53 -2 51 -2 52 -8 12 l-7 -40 -23 38 c-13 20 -27 37 -32 37 -5 0
-9 -22 -9 -50z"/>
<path d="M7878 4435 c-13 -30 3 -75 27 -75 18 0 29 41 21 75 -4 14 -13 25 -21
25 -9 0 -21 -11 -27 -25z m35 -5 c6 -24 -2 -60 -14 -60 -5 0 -9 18 -9 40 0 42
14 54 23 20z"/>
<path d="M8000 4445 c-9 -10 -9 -15 -1 -15 6 0 11 -16 11 -35 0 -19 5 -35 10
-35 6 0 10 23 10 50 0 51 -8 61 -30 35z"/>
<path d="M9553 4395 c0 -22 2 -30 4 -17 2 12 2 30 0 40 -3 9 -5 -1 -4 -23z"/>
<path d="M9600 4420 c0 -5 -7 -10 -15 -10 -9 0 -15 -9 -15 -25 0 -18 5 -25 20
-25 16 0 20 7 20 35 0 19 -2 35 -5 35 -3 0 -5 -4 -5 -10z m0 -35 c0 -8 -4 -15
-10 -15 -5 0 -10 7 -10 15 0 8 5 15 10 15 6 0 10 -7 10 -15z"/>
<path d="M3081 4193 c2 -33 3 -34 6 -9 l5 29 20 -29 c21 -31 21 -26 -1 19 -20
38 -31 34 -30 -10z"/>
<path d="M3147 4197 c-3 -8 -2 -20 3 -27 11 -18 42 -4 38 17 -4 22 -34 29 -41
10z m33 -12 c0 -8 -4 -15 -9 -15 -13 0 -22 16 -14 24 11 11 23 6 23 -9z"/>
<path d="M3200 4199 c0 -5 4 -8 9 -4 5 3 12 -5 14 -17 l4 -23 2 23 c0 12 5 22
10 22 5 0 12 -10 14 -22 4 -20 4 -19 6 5 1 24 -3 27 -29 27 -16 0 -30 -5 -30
-11z"/>
<path d="M3270 4186 c0 -20 5 -26 23 -25 21 0 21 1 2 9 -18 8 -18 9 -2 9 23 1
17 25 -6 29 -12 3 -17 -4 -17 -22z"/>
<path d="M2860 3765 c-22 -27 17 -72 41 -48 6 6 2 9 -13 9 -17 -1 -23 5 -23
19 0 14 6 20 22 19 12 0 20 3 17 8 -8 13 -30 9 -44 -7z"/>
<path d="M2923 3744 c-9 -23 13 -40 32 -24 12 10 13 16 4 26 -15 18 -28 18
-36 -2z m27 -9 c0 -8 -4 -15 -10 -15 -5 0 -10 7 -10 15 0 8 5 15 10 15 6 0 10
-7 10 -15z"/>
<path d="M2970 3756 c0 -2 7 -6 15 -10 8 -3 15 -1 15 4 0 6 -7 10 -15 10 -8 0
-15 -2 -15 -4z"/>
<path d="M3021 3733 c1 -22 2 -23 6 -8 3 11 10 23 17 27 7 5 5 8 -6 8 -13 0
-18 -7 -17 -27z"/>
<path d="M3067 3747 c-3 -8 -2 -20 3 -27 11 -18 42 -4 38 17 -4 22 -34 29 -41
10z m33 -12 c0 -8 -4 -15 -9 -15 -13 0 -22 16 -14 24 11 11 23 6 23 -9z"/>
<path d="M3120 3749 c0 -5 4 -8 9 -4 5 3 12 -5 14 -17 l4 -23 2 23 c0 12 5 22
10 22 5 0 12 -10 14 -22 4 -20 4 -19 6 5 1 24 -3 27 -29 27 -16 0 -30 -5 -30
-11z"/>
<path d="M3190 3736 c0 -20 5 -26 23 -25 21 0 21 1 2 9 -18 8 -18 9 -2 9 23 1
17 25 -6 29 -12 3 -17 -4 -17 -22z"/>
<path d="M4664 3715 c-8 -34 3 -75 21 -75 9 0 21 11 27 25 13 30 -3 75 -27 75
-8 0 -17 -11 -21 -25z m36 -25 c0 -42 -14 -54 -23 -20 -6 24 2 60 14 60 5 0 9
-18 9 -40z"/>
<path d="M4770 3690 c0 -55 17 -69 22 -17 l3 32 20 -32 c10 -18 23 -33 27 -33
4 0 7 24 7 53 -2 51 -2 52 -8 12 l-7 -40 -23 38 c-13 20 -27 37 -32 37 -5 0
-9 -22 -9 -50z"/>
<path d="M7878 3715 c-13 -30 3 -75 27 -75 18 0 29 41 21 75 -4 14 -13 25 -21
25 -9 0 -21 -11 -27 -25z m35 -5 c6 -24 -2 -60 -14 -60 -5 0 -9 18 -9 40 0 42
14 54 23 20z"/>
<path d="M7991 3690 l2 -55 7 45 c4 25 4 49 -1 55 -5 5 -8 -13 -8 -45z"/>
<path d="M8050 3703 l0 -38 -20 25 c-24 31 -26 18 -3 -21 25 -41 33 -36 33 21
0 28 -2 50 -5 50 -3 0 -5 -17 -5 -37z"/>
<path d="M2980 3720 c-13 -9 -13 -10 0 -10 13 0 13 -1 0 -10 -13 -8 -12 -10 3
-10 10 0 17 8 17 20 0 23 0 23 -20 10z"/>
<path d="M9350 3615 c0 -8 9 -19 20 -25 14 -7 20 -7 20 0 0 5 -7 10 -15 10 -8
0 -15 5 -15 11 0 6 7 9 15 5 8 -3 15 -1 15 4 0 6 -9 10 -20 10 -11 0 -20 -7
-20 -15z"/>
<path d="M9651 3593 c1 -21 3 -31 6 -22 2 10 13 19 25 22 25 7 19 31 -10 35
-19 3 -22 -1 -21 -35z m39 17 c0 -5 -7 -10 -15 -10 -8 0 -15 5 -15 10 0 6 7
10 15 10 8 0 15 -4 15 -10z"/>
<path d="M9850 3592 c0 -26 3 -29 35 -30 26 -1 33 2 28 13 -6 18 -24 19 -42 3
-11 -11 -13 -9 -8 9 3 13 1 26 -4 29 -5 3 -9 -8 -9 -24z"/>
<path d="M9403 3594 c-8 -21 13 -42 28 -27 13 13 5 43 -11 43 -6 0 -13 -7 -17
-16z m27 -9 c0 -8 -4 -15 -10 -15 -5 0 -10 7 -10 15 0 8 5 15 10 15 6 0 10 -7
10 -15z"/>
<path d="M9451 3582 c2 -23 2 -24 6 -4 2 12 8 22 13 22 5 0 11 -10 13 -22 l4
-23 2 23 c1 27 18 29 24 2 4 -17 4 -17 3 2 -1 18 -8 23 -33 25 -30 3 -33 0
-32 -25z"/>
<path d="M9530 3599 c0 -5 4 -8 9 -4 5 3 12 -5 14 -17 l4 -23 2 23 c0 12 5 22
10 22 5 0 12 -10 14 -22 4 -20 4 -19 6 5 1 24 -3 27 -29 27 -16 0 -30 -5 -30
-11z"/>
<path d="M9614 3601 c18 -7 18 -8 3 -14 -23 -9 -21 -27 3 -27 15 0 20 7 20 25
0 19 -5 25 -22 24 -21 0 -21 -1 -4 -8z"/>
<path d="M9718 3603 c7 -3 16 -2 19 1 4 3 -2 6 -13 5 -11 0 -14 -3 -6 -6z"/>
<path d="M9753 3589 c-4 -14 -8 -17 -13 -8 -5 6 -15 9 -25 6 -20 -8 -10 -27
15 -27 10 0 22 -4 25 -10 15 -24 35 -9 35 25 0 25 -4 35 -16 35 -9 0 -18 -9
-21 -21z m27 -4 c0 -8 -6 -15 -12 -15 -9 0 -8 -4 2 -11 10 -7 11 -9 2 -7 -8 2
-13 7 -13 11 1 4 1 14 1 22 0 8 5 15 10 15 6 0 10 -7 10 -15z"/>
<path d="M9818 3601 c11 -7 10 -9 -3 -15 -19 -7 -11 -26 11 -26 8 0 14 10 14
25 0 17 -5 25 -17 25 -14 0 -15 -2 -5 -9z"/>
<path d="M9888 3603 c7 -3 16 -2 19 1 4 3 -2 6 -13 5 -11 0 -14 -3 -6 -6z"/>
<path d="M9348 3568 c6 -6 18 -8 28 -6 14 3 12 5 -9 10 -19 3 -25 2 -19 -4z"/>
<path d="M5538 3390 c28 -12 29 -47 2 -53 -17 -4 -16 -4 2 -3 19 1 23 7 23 31
0 25 -4 30 -25 32 -25 3 -25 3 -2 -7z"/>
<path d="M5704 3386 c-11 -29 0 -51 26 -51 21 0 25 5 25 30 0 24 -5 31 -23 33
-13 2 -24 -3 -28 -12z m46 -21 c0 -25 -23 -35 -35 -15 -10 16 2 40 20 40 9 0
15 -9 15 -25z"/>
<path d="M5951 3386 c-7 -8 -21 -12 -31 -9 -11 3 -20 0 -20 -6 0 -5 7 -8 15
-5 10 4 15 0 15 -11 0 -11 -5 -15 -15 -11 -8 3 -15 1 -15 -4 0 -13 27 -13 35
0 4 6 13 5 25 -2 14 -9 23 -9 30 -2 8 8 4 10 -12 10 -17 -1 -23 5 -23 19 0 14
6 20 22 19 12 0 20 3 17 8 -8 12 -30 10 -43 -6z"/>
<path d="M6062 3385 c-6 -8 -19 -12 -27 -9 -8 4 -15 1 -15 -6 0 -6 4 -9 9 -6
5 3 11 -3 14 -14 3 -11 12 -20 21 -20 12 0 16 10 16 35 0 39 0 40 -18 20z m8
-30 c0 -8 -4 -15 -10 -15 -5 0 -10 7 -10 15 0 8 5 15 10 15 6 0 10 -7 10 -15z"/>
<path d="M5605 3380 c-21 -5 -24 -8 -10 -9 18 -1 19 -2 3 -12 -24 -13 -23 -29
2 -29 14 0 20 7 21 23 1 21 1 21 9 -3 8 -24 8 -23 9 8 1 17 0 31 -1 31 -2 -1
-16 -5 -33 -9z"/>
<path d="M5664 3371 c18 -7 18 -8 3 -14 -23 -9 -21 -27 3 -27 15 0 20 7 20 25
0 19 -5 25 -22 24 -21 0 -21 -1 -4 -8z"/>
<path d="M5770 3355 c0 -14 2 -25 4 -25 2 0 6 11 8 25 3 14 1 25 -3 25 -5 0
-9 -11 -9 -25z"/>
<path d="M5814 3371 c18 -7 18 -8 3 -14 -23 -9 -21 -27 3 -27 15 0 20 7 20 25
0 19 -5 25 -22 24 -21 0 -21 -1 -4 -8z"/>
<path d="M5850 3355 c0 -14 2 -25 4 -25 2 0 6 11 8 25 3 14 1 25 -3 25 -5 0
-9 -11 -9 -25z"/>
<path d="M5880 3353 c0 -21 3 -24 9 -14 5 8 7 20 4 28 -8 21 -13 15 -13 -14z"/>
<path d="M6092 3355 c0 -16 2 -22 5 -12 2 9 2 23 0 30 -3 6 -5 -1 -5 -18z"/>
<path d="M6111 3353 c2 -24 2 -25 6 -5 2 12 8 22 13 22 5 0 11 -10 13 -22 4
-20 4 -19 6 5 1 21 -4 27 -19 27 -15 0 -20 -6 -19 -27z"/>
<path d="M6164 3366 c-8 -20 3 -36 24 -35 14 0 13 2 -3 9 -18 8 -18 9 -2 9 10
1 17 6 15 13 -7 19 -27 21 -34 4z"/>
<path d="M373 3155 c0 -22 2 -30 4 -17 2 12 2 30 0 40 -3 9 -5 -1 -4 -23z"/>
<path d="M406 3170 c-20 -21 -15 -50 9 -50 11 0 15 10 15 35 0 40 1 40 -24 15z
m14 -25 c0 -8 -4 -15 -10 -15 -5 0 -10 7 -10 15 0 8 5 15 10 15 6 0 10 -7 10
-15z"/>
<path d="M2644 3037 c-3 -8 -4 -30 -2 -49 2 -25 8 -33 23 -33 17 0 20 7 20 45
0 35 -4 45 -18 48 -9 2 -20 -3 -23 -11z m34 -41 c-2 -15 -7 -28 -13 -29 -12
-2 -19 38 -10 60 9 25 27 1 23 -31z"/>
<path d="M2751 2998 c2 -52 2 -52 8 -13 6 39 7 39 19 17 8 -13 16 -21 19 -19
6 7 -29 67 -39 67 -4 0 -7 -24 -7 -52z"/>
<path d="M2808 3008 c-3 -24 -1 -47 3 -52 5 -6 9 13 9 42 0 63 -6 68 -12 10z"/>
<path d="M230 2775 c-22 -27 17 -72 41 -48 6 6 2 9 -13 9 -17 -1 -23 5 -23 19
0 14 6 20 22 19 12 0 20 3 17 8 -8 13 -30 9 -44 -7z"/>
<path d="M1010 2755 c-350 -40 -330 -39 -330 -21 0 19 -39 46 -66 46 -13 0
-32 -12 -44 -27 -36 -46 -8 -103 50 -103 27 0 60 27 60 48 0 7 6 12 13 12 36
0 650 70 655 75 8 8 -21 5 -338 -30z m-358 -2 c24 -22 24 -69 -1 -83 -31 -16
-59 -12 -75 12 -21 30 -20 44 4 68 24 24 47 25 72 3z"/>
<path d="M380 2752 c0 -18 4 -32 8 -32 9 0 8 47 -1 57 -4 3 -7 -8 -7 -25z"/>
<path d="M293 2754 c-8 -21 13 -42 28 -27 13 13 5 43 -11 43 -6 0 -13 -7 -17
-16z m27 -9 c0 -8 -4 -15 -10 -15 -5 0 -10 7 -10 15 0 8 5 15 10 15 6 0 10 -7
10 -15z"/>
<path d="M348 2763 c7 -3 16 -2 19 1 4 3 -2 6 -13 5 -11 0 -14 -3 -6 -6z"/>
<path d="M407 2757 c-3 -8 -2 -20 3 -27 11 -18 42 -4 38 17 -4 22 -34 29 -41
10z m33 -12 c0 -8 -4 -15 -9 -15 -13 0 -22 16 -14 24 11 11 23 6 23 -9z"/>
<path d="M349 2741 c11 -7 11 -9 0 -14 -10 -4 -9 -6 4 -6 9 -1 17 6 17 14 0 8
-8 15 -17 15 -14 0 -15 -2 -4 -9z"/>
<path d="M5570 2425 c-23 -28 0 -50 54 -52 44 -1 46 0 45 25 -2 24 -2 24 -6 5
-2 -13 -9 -23 -14 -23 -5 0 -9 10 -10 23 -1 20 -1 21 -7 2 -9 -26 -55 -27 -60
-2 -4 22 27 35 40 16 8 -12 9 -11 5 1 -5 21 -31 24 -47 5z"/>
<path d="M5780 2402 c0 -18 4 -32 8 -32 9 0 8 47 -1 57 -4 3 -7 -8 -7 -25z"/>
<path d="M5694 2411 c18 -7 18 -8 3 -14 -23 -9 -21 -27 3 -27 15 0 20 7 20 25
0 19 -5 25 -22 24 -21 0 -21 -1 -4 -8z"/>
<path d="M5731 2393 c1 -23 2 -24 6 -5 2 12 8 22 13 22 5 0 11 -10 13 -22 5
-20 5 -20 4 2 -1 15 -9 26 -19 28 -14 3 -18 -3 -17 -25z"/>
<path d="M5858 2413 c7 -3 16 -2 19 1 4 3 -2 6 -13 5 -11 0 -14 -3 -6 -6z"/>
<path d="M5842 2387 c-9 -10 -4 -13 18 -15 23 -2 28 1 24 13 -7 18 -28 19 -42
2z"/>
<path d="M7904 2347 c-3 -8 -4 -30 -2 -49 2 -25 8 -33 23 -33 17 0 20 7 20 45
0 35 -4 45 -18 48 -9 2 -20 -3 -23 -11z m34 -41 c-2 -15 -7 -28 -13 -29 -12
-2 -19 38 -10 60 9 25 27 1 23 -31z"/>
<path d="M8026 2345 c-17 -13 -17 -15 -4 -15 12 0 18 -11 21 -37 3 -31 4 -29
5 15 1 28 1 52 0 52 -2 0 -12 -7 -22 -15z"/>
<path d="M147 2272 c6 -4 13 -21 16 -37 l4 -30 2 32 c1 24 6 33 24 36 12 2 5
5 -18 5 -22 1 -35 -2 -28 -6z"/>
<path d="M293 2245 c0 -22 2 -30 4 -17 2 12 2 30 0 40 -3 9 -5 -1 -4 -23z"/>
<path d="M213 2263 c-7 -2 -13 -17 -12 -31 l1 -27 7 25 8 25 5 -25 c5 -22 5
-21 7 8 0 17 0 32 -1 31 -2 0 -9 -3 -15 -6z"/>
<path d="M243 2244 c-8 -21 13 -42 28 -27 13 13 5 43 -11 43 -6 0 -13 -7 -17
-16z m27 -9 c0 -8 -4 -15 -10 -15 -5 0 -10 7 -10 15 0 8 5 15 10 15 6 0 10 -7
10 -15z"/>
<path d="M313 2244 c-8 -21 13 -42 28 -27 13 13 5 43 -11 43 -6 0 -13 -7 -17
-16z m27 -9 c0 -8 -4 -15 -10 -15 -5 0 -10 7 -10 15 0 8 5 15 10 15 6 0 10 -7
10 -15z"/>
<path d="M4970 1400 c-17 -17 -20 -33 -20 -110 0 -51 -4 -90 -10 -90 -12 0
-475 81 -475 83 -1 1 -9 14 -18 30 -14 21 -25 27 -52 27 -43 0 -65 -22 -65
-65 0 -24 7 -39 22 -49 33 -23 57 -20 88 14 l27 29 242 -41 241 -42 0 -93 c0
-138 -10 -133 250 -133 116 0 210 -2 210 -4 0 -3 -47 -74 -105 -160 -101 -148
-107 -155 -130 -146 -34 13 -73 -3 -85 -35 -21 -55 30 -106 85 -85 30 11 48
51 36 82 -5 14 -3 27 5 37 8 9 58 81 111 161 l98 145 180 2 180 3 128 -175
c122 -168 127 -177 121 -214 -5 -33 -3 -41 21 -59 34 -27 59 -28 85 -2 46 46
12 114 -54 109 -36 -3 -37 -3 -161 166 l-124 170 113 5 c75 3 119 10 130 19
14 12 16 40 16 212 0 193 -1 198 -22 213 -20 14 -87 16 -535 16 -500 0 -514
-1 -533 -20z m1075 -210 l0 -205 -529 -3 c-382 -1 -533 1 -542 9 -19 16 -20
379 -2 397 9 9 138 12 543 10 l530 -3 0 -205z m-875 -550 c34 -18 44 -48 25
-76 -17 -26 -62 -33 -83 -12 -20 20 -14 65 10 82 27 19 24 19 48 6z m964 -46
c41 -40 -7 -109 -59 -86 -14 6 -27 23 -31 37 -13 50 53 86 90 49z"/>
<path d="M5227 1243 c-15 -14 -5 -33 24 -49 23 -12 28 -19 20 -27 -9 -9 -16
-8 -31 1 -11 7 -20 8 -20 3 0 -16 20 -23 46 -17 33 9 30 32 -6 51 -17 9 -28
20 -25 25 8 13 35 13 35 0 0 -5 5 -10 11 -10 8 0 8 5 -1 15 -13 16 -42 20 -53
8z"/>
<path d="M5743 1200 c0 -30 2 -43 4 -27 2 15 2 39 0 55 -2 15 -4 2 -4 -28z"/>
<path d="M5452 1198 c2 -23 8 -43 14 -45 7 -2 9 8 6 27 -3 18 0 30 7 30 6 0
11 -13 11 -30 0 -22 5 -30 18 -30 13 0 14 2 4 9 -8 4 -13 19 -12 32 1 13 2 31
1 39 -1 13 -2 13 -12 0 -8 -11 -12 -12 -16 -2 -11 27 -24 9 -21 -30z"/>
<path d="M5300 1171 c0 -28 5 -51 10 -51 6 0 10 6 10 14 0 7 9 16 21 19 16 4
20 12 17 34 -2 22 -9 29 -30 31 -27 3 -28 2 -28 -47z m45 14 c0 -10 -6 -20
-12 -22 -8 -3 -13 5 -13 22 0 17 5 25 13 23 6 -3 12 -13 12 -23z"/>
<path d="M5384 1206 c-15 -39 23 -74 50 -46 8 9 6 11 -11 6 -12 -4 -24 -2 -28
4 -4 6 4 10 19 10 28 0 33 9 14 28 -16 16 -37 15 -44 -2z m36 -6 c0 -5 -7 -10
-16 -10 -8 0 -12 5 -9 10 3 6 10 10 16 10 5 0 9 -4 9 -10z"/>
<path d="M5536 1211 c-4 -5 3 -7 14 -4 11 3 20 0 20 -6 0 -6 -9 -11 -20 -11
-13 0 -20 -7 -20 -20 0 -15 6 -19 25 -18 21 2 25 7 25 35 0 26 -4 33 -19 33
-11 0 -22 -4 -25 -9z m29 -41 c-3 -5 -10 -10 -16 -10 -5 0 -9 5 -9 10 0 6 7
10 16 10 8 0 12 -4 9 -10z"/>
<path d="M5604 1206 c-10 -26 1 -51 24 -54 12 -2 22 1 22 6 0 5 -8 9 -17 8
-12 -1 -18 6 -18 19 0 13 6 20 17 19 10 -1 15 2 12 7 -8 14 -34 11 -40 -5z"/>
<path d="M5670 1205 c-17 -21 -2 -50 26 -50 14 0 19 7 19 30 0 34 -24 45 -45
20z m35 -20 c0 -10 -6 -20 -12 -22 -8 -3 -13 5 -13 22 0 17 5 25 13 23 6 -3
12 -13 12 -23z"/>
<path d="M5773 1185 c0 -22 2 -30 4 -17 2 12 2 30 0 40 -3 9 -5 -1 -4 -23z"/>
<path d="M3867 1362 c6 -4 13 -21 16 -37 l4 -30 2 32 c0 21 7 33 19 36 9 3 1
5 -18 6 -19 0 -30 -3 -23 -7z"/>
<path d="M4010 1333 c0 -24 3 -33 9 -25 7 12 4 62 -5 62 -2 0 -4 -17 -4 -37z"/>
<path d="M3963 1334 c-8 -21 13 -42 28 -27 13 13 5 43 -11 43 -6 0 -13 -7 -17
-16z m27 -9 c0 -8 -4 -15 -10 -15 -5 0 -10 7 -10 15 0 8 5 15 10 15 6 0 10 -7
10 -15z"/>
<path d="M4030 1341 c0 -6 7 -8 15 -5 10 4 15 0 15 -11 0 -11 -5 -15 -15 -11
-8 3 -15 1 -15 -5 0 -6 8 -9 18 -7 9 2 17 12 17 23 0 11 -8 21 -17 23 -10 2
-18 -1 -18 -7z"/>
<path d="M7500 1185 c0 -28 4 -35 19 -35 11 0 22 4 25 9 4 5 -3 7 -14 4 -16
-4 -20 0 -20 21 0 32 24 35 40 5 8 -14 20 -20 38 -19 48 3 58 -3 17 -10 l-40
-7 43 -2 c31 -1 42 3 42 14 0 8 -8 15 -17 16 -15 0 -15 2 2 8 14 6 7 8 -25 8
-32 0 -39 -2 -25 -8 20 -8 20 -8 0 -8 -11 -1 -26 8 -33 19 -7 11 -21 20 -32
20 -16 0 -20 -7 -20 -35z"/>
<path d="M7662 1176 c4 -28 48 -32 48 -5 0 27 18 24 23 -3 4 -20 4 -20 6 4 1
25 -2 27 -40 26 -35 0 -40 -3 -37 -22z m30 -1 c0 -5 -5 -11 -11 -13 -6 -2 -11
4 -11 13 0 9 5 15 11 13 6 -2 11 -8 11 -13z"/>
<path d="M7759 1191 c9 -6 10 -11 2 -15 -19 -12 -12 -26 12 -25 18 1 18 2 4 6
-18 5 -18 6 -1 24 16 18 16 19 -7 19 -17 0 -20 -3 -10 -9z"/>
<path d="M7800 1175 c0 -15 7 -21 24 -23 25 -2 39 17 27 36 -12 20 -51 10 -51
-13z m42 0 c0 -5 -5 -11 -11 -13 -6 -2 -11 4 -11 13 0 9 5 15 11 13 6 -2 11
-8 11 -13z"/>
<path d="M7870 1189 c0 -5 4 -8 9 -4 5 3 12 -5 14 -17 4 -20 4 -19 6 5 1 18
-4 27 -14 27 -8 0 -15 -5 -15 -11z"/>
<path d="M7914 1185 c-8 -19 3 -35 24 -34 14 0 13 2 -3 8 -19 8 -18 9 5 13
l25 5 -25 2 c-23 2 -24 3 -5 11 18 8 18 9 2 9 -10 1 -20 -6 -23 -14z"/>
<path d="M8557 1173 c-3 -5 5 -8 18 -8 13 0 21 3 18 8 -2 4 -10 7 -18 7 -8 0
-16 -3 -18 -7z"/>
<path d="M8786 1154 c-7 -25 -8 -26 -21 -8 -10 15 -16 16 -26 7 -17 -17 -4
-42 20 -40 12 1 21 5 21 9 0 4 9 8 20 8 11 0 20 -5 20 -12 0 -6 2 -9 5 -6 12
11 -7 37 -23 31 -14 -5 -15 -3 -4 8 14 15 16 29 3 29 -5 0 -12 -12 -15 -26z
m-26 -19 c0 -8 -4 -15 -10 -15 -5 0 -10 7 -10 15 0 8 5 15 10 15 6 0 10 -7 10
-15z"/>
<path d="M8983 1145 c0 -22 2 -30 4 -17 2 12 2 30 0 40 -3 9 -5 -1 -4 -23z"/>
<path d="M8837 1164 c-2 -3 -2 -17 1 -32 l6 -27 7 25 c7 24 7 24 8 3 1 -13 5
-23 9 -23 15 0 5 53 -11 56 -8 1 -18 0 -20 -2z"/>
<path d="M8613 1144 c-8 -21 13 -42 28 -27 13 13 5 43 -11 43 -6 0 -13 -7 -17
-16z m27 -9 c0 -8 -4 -15 -10 -15 -5 0 -10 7 -10 15 0 8 5 15 10 15 6 0 10 -7
10 -15z"/>
<path d="M8660 1145 c0 -8 8 -15 18 -16 14 0 14 -2 -3 -9 -16 -7 -17 -9 -3 -9
23 -1 33 18 13 25 -13 6 -14 8 -3 15 10 7 9 9 -4 9 -10 0 -18 -7 -18 -15z"/>
<path d="M8910 1141 c0 -11 -6 -22 -12 -24 -8 -3 -6 -6 5 -6 12 -1 17 7 17 24
0 14 -2 25 -5 25 -3 0 -5 -9 -5 -19z"/>
<path d="M8948 1151 c11 -7 10 -9 -3 -15 -19 -7 -11 -26 11 -26 8 0 14 10 14
25 0 17 -5 25 -17 25 -14 0 -15 -2 -5 -9z"/>
<path d="M9004 1146 c-8 -20 3 -36 24 -35 14 0 13 2 -3 9 -18 8 -18 9 -2 9 10
1 17 6 15 13 -7 19 -27 21 -34 4z"/>
<path d="M8557 1118 c2 -5 10 -8 18 -8 8 0 16 3 18 8 3 4 -5 7 -18 7 -13 0
-21 -3 -18 -7z"/>
<path d="M4742 850 c-159 -94 -209 -119 -228 -114 -58 15 -104 -29 -84 -80 18
-49 68 -59 106 -21 20 20 24 31 19 57 l-6 33 193 113 c224 131 226 132 213
132 -5 0 -102 -54 -213 -120z m-207 -144 c19 -28 9 -58 -26 -76 -45 -25 -94
51 -57 88 21 21 66 14 83 -12z"/>
<path d="M3920 635 c0 -32 3 -36 23 -33 17 2 22 10 22 33 0 23 -5 31 -22 33
-20 3 -23 -1 -23 -33z m40 0 c0 -16 -6 -25 -15 -25 -9 0 -15 9 -15 25 0 16 6
25 15 25 9 0 15 -9 15 -25z"/>
<path d="M3980 626 c0 -20 5 -26 23 -25 21 0 21 1 2 9 -18 8 -18 9 -2 9 23 1
17 25 -6 29 -12 3 -17 -4 -17 -22z"/>
<path d="M4030 635 c0 -8 8 -15 18 -16 14 0 14 -2 -3 -9 -15 -6 -11 -8 17 -6
20 1 40 5 45 9 4 5 0 5 -10 1 -12 -4 -17 -1 -17 11 0 12 5 15 18 10 14 -5 15
-4 4 7 -11 11 -16 10 -26 -4 -7 -10 -17 -13 -25 -8 -11 6 -11 9 0 13 10 4 9 6
-3 6 -10 1 -18 -6 -18 -14z"/>
<path d="M4120 625 c0 -14 2 -25 4 -25 2 0 6 11 8 25 3 14 1 25 -3 25 -5 0 -9
-11 -9 -25z"/>
<path d="M4150 625 c0 -21 5 -25 28 -25 19 0 23 3 13 9 -9 6 -10 11 -2 15 19
12 12 26 -14 26 -20 0 -25 -5 -25 -25z m40 11 c0 -2 -7 -9 -15 -16 -12 -10
-15 -10 -15 4 0 9 7 16 15 16 8 0 15 -2 15 -4z"/>
<path d="M4212 625 c0 -16 2 -22 5 -12 2 9 2 23 0 30 -3 6 -5 -1 -5 -18z"/>
<path d="M4233 634 c-8 -21 13 -42 28 -27 13 13 5 43 -11 43 -6 0 -13 -7 -17
-16z m27 -9 c0 -8 -4 -15 -10 -15 -5 0 -10 7 -10 15 0 8 5 15 10 15 6 0 10 -7
10 -15z"/>
<path d="M4281 623 c2 -24 2 -25 6 -5 2 12 9 22 14 22 5 0 9 -10 10 -22 0 -13
3 -17 6 -10 2 6 16 12 30 12 29 0 27 24 -3 27 -18 3 -18 2 1 -6 19 -9 19 -10
-2 -10 -12 -1 -25 4 -28 9 -13 21 -35 10 -34 -17z"/>
<path d="M4338 603 c6 -2 18 -2 25 0 6 3 1 5 -13 5 -14 0 -19 -2 -12 -5z"/>
<path d="M4858 503 c6 -2 18 -2 25 0 6 3 1 5 -13 5 -14 0 -19 -2 -12 -5z"/>
<path d="M5203 475 c0 -22 2 -30 4 -17 2 12 2 30 0 40 -3 9 -5 -1 -4 -23z"/>
<path d="M4904 476 c-8 -20 3 -36 24 -35 14 0 13 2 -3 9 -18 8 -18 9 -2 9 10
1 17 6 15 13 -7 19 -27 21 -34 4z"/>
<path d="M4951 461 c2 -23 2 -24 6 -3 5 26 20 29 25 5 4 -20 69 -28 80 -10 14
23 -4 34 -57 34 -53 0 -55 -1 -54 -26z m61 4 c0 -5 -5 -11 -11 -13 -6 -2 -11
4 -11 13 0 9 5 15 11 13 6 -2 11 -8 11 -13z m40 0 c0 -5 -5 -11 -11 -13 -6 -2
-11 4 -11 13 0 9 5 15 11 13 6 -2 11 -8 11 -13z"/>
<path d="M5080 478 c0 -4 3 -7 8 -6 4 0 16 -3 26 -7 19 -8 19 -9 0 -16 -17 -7
-17 -8 4 -8 12 -1 22 5 22 12 0 8 3 8 9 -2 11 -17 41 -7 41 14 0 19 -32 33
-38 17 -2 -7 -13 -12 -25 -11 -21 0 -21 1 -2 9 16 6 14 8 -12 7 -18 0 -33 -4
-33 -9z m100 -13 c0 -8 -4 -15 -9 -15 -13 0 -22 16 -14 24 11 11 23 6 23 -9z"/>
<path d="M5221 462 c2 -23 2 -24 6 -4 2 12 8 22 13 22 5 0 11 -10 13 -22 l4
-23 2 23 c1 27 18 29 24 2 4 -17 4 -17 3 2 -1 18 -8 23 -33 25 -30 3 -33 0
-32 -25z"/>
<path d="M5300 479 c0 -5 4 -8 9 -4 5 3 12 -5 14 -17 l4 -23 2 23 c1 26 21 30
21 4 0 -13 9 -18 30 -20 23 -2 28 1 24 13 -4 8 -14 15 -23 15 -14 0 -14 -2 -1
-10 11 -7 12 -10 2 -10 -8 0 -16 9 -19 20 -4 14 -14 20 -34 20 -16 0 -29 -5
-29 -11z"/>
<path d="M5378 483 c7 -3 16 -2 19 1 4 3 -2 6 -13 5 -11 0 -14 -3 -6 -6z"/>
<path d="M5420 486 c0 -2 7 -6 15 -10 8 -3 15 -1 15 4 0 6 -7 10 -15 10 -8 0
-15 -2 -15 -4z"/>
<path d="M5490 479 c0 -5 4 -8 9 -4 5 3 12 -5 14 -17 4 -20 4 -19 6 5 1 18 -4
27 -14 27 -8 0 -15 -5 -15 -11z"/>
<path d="M5534 475 c-8 -19 3 -35 24 -34 14 0 13 2 -3 8 -19 8 -18 9 5 13 l25
5 -25 2 c-23 2 -24 3 -5 11 18 8 18 9 2 9 -10 1 -20 -6 -23 -14z"/>
<path d="M4858 473 c6 -2 18 -2 25 0 6 3 1 5 -13 5 -14 0 -19 -2 -12 -5z"/>
<path d="M5430 450 c-13 -9 -13 -10 0 -10 13 0 13 -1 0 -10 -13 -8 -12 -10 3
-10 10 0 17 8 17 20 0 23 0 23 -20 10z"/>
<path d="M5770 384 c0 -31 3 -35 22 -32 12 2 23 9 24 16 1 7 0 8 -3 2 -10 -21
-33 -10 -33 16 0 21 4 25 20 21 11 -3 18 -1 14 4 -3 5 -14 9 -25 9 -15 0 -19
-7 -19 -36z"/>
<path d="M6233 385 c0 -22 2 -30 4 -17 2 12 2 30 0 40 -3 9 -5 -1 -4 -23z"/>
<path d="M5834 386 c-8 -20 3 -36 24 -35 14 0 13 2 -3 9 -18 8 -18 9 -2 9 10
1 17 6 15 13 -7 19 -27 21 -34 4z"/>
<path d="M5880 390 c0 -5 8 -14 18 -19 16 -10 15 -10 -3 -11 -11 -1 -14 -4 -7
-7 7 -3 19 1 27 7 11 9 15 9 15 1 0 -6 8 -11 18 -11 16 1 16 1 -1 11 -9 6 -15
15 -12 20 4 5 11 7 16 4 5 -4 9 -1 9 4 0 16 -27 13 -34 -4 -3 -9 -12 -12 -21
-8 -13 5 -14 7 -3 14 10 7 9 9 -4 9 -10 0 -18 -4 -18 -10z"/>
<path d="M5970 375 c0 -14 2 -25 4 -25 2 0 6 11 8 25 3 14 1 25 -3 25 -5 0 -9
-11 -9 -25z"/>
<path d="M6002 375 c0 -16 2 -22 5 -12 2 9 2 23 0 30 -3 6 -5 -1 -5 -18z"/>
<path d="M6029 391 c9 -6 10 -11 2 -15 -19 -12 -12 -26 14 -26 21 0 25 4 24
28 -2 23 -2 24 -6 5 -2 -13 -12 -23 -21 -23 -12 0 -13 3 -4 12 17 17 15 28 -5
28 -14 0 -15 -2 -4 -9z"/>
<path d="M6083 384 c-8 -21 13 -42 28 -27 13 13 5 43 -11 43 -6 0 -13 -7 -17
-16z m27 -9 c0 -8 -4 -15 -10 -15 -5 0 -10 7 -10 15 0 8 5 15 10 15 6 0 10 -7
10 -15z"/>
<path d="M6131 373 c2 -24 2 -25 6 -5 2 12 8 22 13 22 5 0 11 -10 13 -22 4
-20 4 -19 6 5 1 21 -4 27 -19 27 -15 0 -20 -6 -19 -27z"/>
<path d="M6180 376 c0 -20 5 -26 23 -25 21 0 21 1 2 9 -18 8 -18 9 -2 9 23 1
17 25 -6 29 -12 3 -17 -4 -17 -22z"/>
<path d="M6260 389 c0 -5 4 -8 9 -4 5 3 12 -5 14 -17 l4 -23 2 23 c0 12 5 22
10 22 5 0 12 -10 14 -22 4 -20 4 -19 6 5 1 24 -3 27 -29 27 -16 0 -30 -5 -30
-11z"/>
<path d="M6331 372 l1 -27 8 25 8 25 2 -25 1 -25 11 25 11 25 7 -25 8 -25 1
26 c1 22 -3 26 -29 27 -26 1 -30 -3 -29 -26z"/>
<path d="M6414 391 c18 -7 18 -8 3 -14 -23 -9 -21 -27 3 -27 15 0 20 7 20 25
0 19 -5 25 -22 24 -21 0 -21 -1 -4 -8z"/>
<path d="M6450 364 c0 -28 3 -35 18 -32 11 2 18 14 20 36 3 27 0 32 -17 32
-17 0 -21 -6 -21 -36z m30 11 c0 -8 -4 -15 -10 -15 -5 0 -10 7 -10 15 0 8 5
15 10 15 6 0 10 -7 10 -15z"/>
<path d="M6502 375 c0 -16 2 -22 5 -12 2 9 2 23 0 30 -3 6 -5 -1 -5 -18z"/>
<path d="M6521 373 c1 -22 2 -23 6 -8 3 11 10 23 17 27 7 5 5 8 -6 8 -13 0
-18 -7 -17 -27z"/>
<path d="M6585 391 c19 -8 18 -9 -5 -13 -24 -5 -24 -5 3 -7 32 -1 33 22 1 26
-18 3 -18 2 1 -6z"/>
<path d="M6578 353 c6 -2 18 -2 25 0 6 3 1 5 -13 5 -14 0 -19 -2 -12 -5z"/>
</g>
</svg>
