<?xml version="1.0" standalone="no"?>
<!DOCTYPE svg PUBLIC "-//W3C//DTD SVG 20010904//EN"
 "http://www.w3.org/TR/2001/REC-SVG-20010904/DTD/svg10.dtd">
<svg version="1.0" xmlns="http://www.w3.org/2000/svg"
 width="384.000000pt" height="384.000000pt" viewBox="0 0 384.000000 384.000000"
 preserveAspectRatio="xMidYMid meet">

<g transform="translate(0.000000,384.000000) scale(0.100000,-0.100000)"
fill="#000000" stroke="none">
<path d="M1940 3431 c-8 -5 -39 -11 -69 -14 -29 -4 -64 -13 -77 -22 -14 -9
-46 -15 -82 -15 -34 0 -66 -6 -78 -14 -19 -14 -19 -15 5 -40 l23 -25 -22 -36
c-12 -20 -19 -39 -16 -42 3 -4 29 -1 57 5 28 7 63 12 77 12 15 0 48 11 74 25
26 14 61 25 78 25 27 0 30 -3 30 -30 0 -17 -14 -92 -31 -168 -17 -75 -35 -153
-39 -172 -4 -19 -11 -49 -15 -67 -4 -17 -20 -44 -36 -59 -30 -29 -40 -86 -18
-100 16 -10 6 -66 -30 -164 -35 -96 -67 -154 -80 -146 -5 3 -7 36 -5 73 12
196 16 224 30 230 18 7 18 50 -2 104 -8 24 -26 95 -39 158 -13 62 -26 116 -29
118 -3 3 -9 -12 -14 -33 -4 -22 -24 -103 -44 -182 -34 -140 -35 -144 -17 -166
15 -20 19 -51 25 -200 7 -176 1 -210 -24 -143 -10 26 -14 29 -22 17 -5 -8 -10
-35 -10 -60 0 -46 -13 -70 -37 -70 -20 0 -18 216 2 224 9 3 15 18 15 37 0 18
8 41 17 51 19 21 14 33 -52 138 -72 113 -165 370 -165 455 0 63 -2 64 -84 39
-147 -45 -175 -53 -225 -58 -29 -3 -60 -11 -68 -17 -12 -11 -10 -16 11 -36 31
-29 31 -27 5 -70 -12 -19 -18 -37 -15 -40 3 -4 30 1 60 10 29 9 67 17 84 17
17 0 42 10 59 24 33 27 123 45 123 24 -1 -53 -91 -268 -162 -386 -41 -68 -46
-93 -23 -112 8 -7 15 -22 15 -35 0 -12 9 -30 20 -40 18 -16 20 -31 20 -135 0
-147 -5 -175 -36 -189 -36 -16 -44 -14 -44 13 0 15 7 26 20 29 28 7 26 46 -6
88 -67 89 -116 220 -145 385 -6 35 -14 64 -18 64 -3 0 -17 -50 -29 -112 -26
-126 -64 -224 -122 -311 -44 -66 -50 -101 -20 -117 17 -9 20 -21 20 -79 l0
-68 -32 -7 c-20 -4 -34 -2 -36 4 -10 29 -73 99 -116 128 -80 53 -140 66 -291
59 -154 -6 -227 -22 -260 -55 -21 -21 -25 -34 -25 -89 0 -72 16 -112 54 -133
l26 -13 0 -149 c0 -137 -2 -151 -22 -178 -24 -32 -35 -115 -24 -175 5 -26 16
-41 39 -55 28 -17 51 -20 181 -20 137 0 148 -1 140 -17 -4 -10 -9 -35 -12 -57
l-4 -38 -54 6 c-132 15 -179 -56 -186 -281 l-3 -92 65 -22 c66 -22 78 -25 210
-52 173 -35 675 -71 855 -61 164 9 263 39 322 96 30 29 35 30 126 32 l96 1 30
50 c53 89 90 179 98 240 7 56 10 60 36 63 21 3 29 -2 37 -23 5 -14 10 -40 10
-56 0 -16 4 -37 10 -47 5 -9 19 -43 31 -74 11 -32 26 -58 32 -59 7 0 26 -21
42 -47 l30 -47 60 3 c78 4 154 -13 185 -43 28 -27 81 -51 155 -71 118 -32 759
-1 945 46 25 6 68 16 95 21 61 12 147 39 158 49 15 13 18 132 6 205 -23 142
-64 180 -176 169 -60 -6 -66 -5 -60 10 9 22 -17 84 -38 92 -32 13 -14 31 36
37 99 12 179 82 215 189 13 41 14 57 5 88 -7 23 -9 61 -5 94 12 99 -38 199
-121 244 -47 25 -161 22 -208 -6 -21 -12 -40 -22 -43 -22 -2 0 -4 52 -4 115 0
111 -1 115 -25 131 -20 13 -43 16 -118 12 -97 -5 -148 7 -174 41 -36 44 -92
182 -104 251 -21 128 -26 126 -58 -32 -14 -64 -77 -198 -115 -243 l-25 -30
-15 21 c-8 12 -29 27 -46 34 -35 15 -41 53 -11 69 30 16 31 46 2 103 -74 146
-127 302 -158 459 -10 49 -21 89 -24 89 -3 0 -16 -46 -28 -102 -33 -146 -85
-298 -142 -410 -27 -54 -46 -104 -43 -112 3 -8 17 -22 30 -31 15 -10 24 -25
24 -41 0 -35 -28 -28 -56 14 l-23 33 -28 -36 c-33 -41 -53 -45 -53 -11 0 15 7
26 20 29 26 7 25 25 -4 89 -42 92 -73 173 -86 225 -11 44 -11 52 4 76 21 30
15 54 -21 98 -38 45 -103 341 -112 508 -3 69 -10 126 -16 127 -5 2 -17 0 -25
-5z m120 -651 c33 -17 24 -33 -12 -23 -18 4 -73 8 -121 7 -90 -1 -100 6 -37
25 40 12 141 6 170 -9z m-390 -12 c0 -19 -2 -20 -10 -8 -13 19 -13 30 0 30 6
0 10 -10 10 -22z m-285 -43 c39 -14 39 -14 5 -8 -47 8 -142 7 -171 -2 -13 -4
-21 -4 -17 0 22 23 128 29 183 10z m280 -15 c4 -6 -5 -10 -20 -10 -15 0 -24 4
-20 10 3 6 12 10 20 10 8 0 17 -4 20 -10z m345 0 c0 -4 -6 -12 -13 -18 -9 -8
-16 -6 -24 7 -10 16 -8 19 13 19 13 0 24 -4 24 -8z m-56 -16 c-13 -6 -7 -44 7
-44 5 0 9 5 9 10 0 6 5 10 10 10 6 0 10 -7 10 -16 0 -8 -4 -13 -9 -10 -5 4
-11 1 -13 -5 -2 -7 -16 0 -33 16 -17 14 -25 24 -19 21 7 -3 14 1 18 9 3 8 11
15 18 14 9 0 9 -2 2 -5z m56 -119 c0 -5 -5 -3 -10 5 -5 8 -10 20 -10 25 0 6 5
3 10 -5 5 -8 10 -19 10 -25z m525 25 c22 -6 12 -8 -40 -8 -49 0 -62 2 -45 8
31 10 46 10 85 0z m-1100 -44 c25 -7 41 -19 43 -30 3 -16 0 -18 -19 -12 -88
26 -217 26 -298 1 -19 -7 -22 -5 -19 11 2 13 18 23 48 31 58 15 194 15 245 -1z
m606 -26 c5 0 9 -6 9 -14 0 -8 4 -18 10 -21 6 -4 7 1 3 12 -6 17 -5 17 13 1
17 -17 17 -18 -6 -40 -18 -17 -22 -18 -17 -5 3 9 2 19 -3 22 -16 10 -37 60
-31 75 4 10 7 8 9 -7 2 -13 8 -23 13 -23z m-383 -36 c-2 -22 -7 -39 -13 -39
-12 0 -19 60 -10 83 10 28 27 -3 23 -44z m217 -3 c3 -5 1 -12 -5 -16 -5 -3
-10 1 -10 9 0 18 6 21 15 7z m-441 -20 c13 -11 16 -38 16 -162 l0 -149 -77 0
-78 0 -64 -50 c-35 -28 -65 -49 -66 -48 -1 2 2 35 6 73 5 39 8 128 8 198 -1
71 3 133 7 137 24 23 221 23 248 1z m671 -39 c-8 -9 -25 20 -18 31 3 5 10 2
15 -7 6 -10 7 -20 3 -24z m-125 22 c0 -8 -19 -13 -24 -6 -3 5 1 9 9 9 8 0 15
-2 15 -3z m-1055 -33 c3 -5 1 -12 -5 -16 -5 -3 -10 1 -10 9 0 18 6 21 15 7z
m735 -42 c0 -28 -4 -39 -15 -39 -11 0 -15 11 -15 38 0 21 3 42 6 45 14 13 24
-6 24 -44z m342 15 c21 -36 29 -130 15 -164 -9 -22 -12 -15 -18 53 -7 80 -19
107 -49 107 -26 0 -40 -44 -40 -130 0 -62 -3 -80 -14 -80 -10 0 -15 21 -18 83
-4 71 -2 87 18 122 19 35 26 40 55 39 26 -1 38 -8 51 -30z m-181 11 c5 4 6 -2
2 -11 -4 -10 -8 -13 -10 -7 -3 7 -12 9 -21 6 -15 -6 -15 -5 -2 11 8 11 16 14
18 7 2 -6 8 -9 13 -6z m154 -123 c0 -60 -2 -67 -20 -67 -17 0 -20 8 -23 57 -2
32 2 67 8 79 20 36 35 5 35 -69z m598 73 c37 -6 38 -7 35 -43 -3 -33 -6 -37
-33 -40 -25 -2 -32 3 -45 30 -8 18 -20 34 -26 35 -19 6 -44 -26 -44 -56 0 -21
-8 -31 -34 -44 -19 -8 -37 -13 -40 -10 -3 4 -6 32 -6 64 l0 57 53 10 c51 10
65 9 140 -3z m-1623 -36 c0 -5 -7 -9 -15 -9 -9 0 -12 6 -9 15 6 15 24 11 24
-6z m1567 -43 c-10 -25 -37 -19 -37 7 0 13 3 27 7 31 11 11 36 -21 30 -38z
m-1539 22 c-2 -7 3 -12 10 -10 6 1 12 -7 12 -18 0 -11 -4 -20 -8 -20 -12 0
-32 46 -25 54 10 9 13 7 11 -6z m23 -118 c16 -9 19 -22 19 -90 0 -43 -4 -81
-9 -84 -5 -3 -26 1 -47 10 -26 11 -54 14 -87 11 -73 -9 -77 -6 -77 78 0 62 3
74 18 78 34 9 164 7 183 -3z m1676 -16 c26 -40 22 -181 -7 -271 -30 -95 -80
-192 -145 -283 -53 -73 -151 -179 -158 -169 -1 2 -13 31 -27 64 -13 33 -49
112 -80 175 -50 103 -71 153 -142 338 -11 29 -29 64 -40 78 -11 13 -18 31 -15
38 11 27 198 57 234 37 19 -10 21 -20 22 -116 0 -113 6 -143 53 -272 18 -49
34 -80 40 -77 16 10 65 123 82 191 23 89 20 133 -13 196 -22 42 -26 58 -18 66
20 16 80 29 139 30 52 1 59 -2 75 -25z m386 -277 l-6 -263 34 -27 c32 -25 33
-27 17 -43 -9 -9 -38 -19 -65 -21 -38 -4 -53 -1 -73 15 l-25 20 0 250 c0 248
0 250 -23 275 -16 17 -20 27 -12 32 13 8 92 22 133 24 l27 1 -7 -263z m-1086
213 l10 -40 -108 0 -109 0 0 40 0 40 98 0 98 0 11 -40z m1307 -147 c-14 -305
-13 -342 14 -363 12 -10 28 -21 35 -24 8 -3 4 -11 -12 -25 -32 -29 -113 -29
-141 -1 -19 19 -20 31 -18 264 3 242 3 244 -20 276 -13 17 -22 33 -20 35 9 9
79 23 122 24 l48 1 -8 -187z m-2783 148 c55 -26 79 -50 111 -111 20 -39 23
-59 23 -150 0 -92 -3 -111 -25 -155 -58 -116 -159 -179 -304 -192 -82 -6 -186
3 -186 18 0 5 10 24 23 40 21 29 22 39 22 227 0 216 -9 257 -60 280 -41 19
-30 38 28 50 87 20 98 21 212 18 89 -2 119 -7 156 -25z m2362 1 c47 -42 -10
-137 -70 -116 -38 13 -60 55 -48 91 18 51 75 63 118 25z m-1163 -22 c0 -20 -6
-32 -17 -36 -10 -3 -32 -12 -49 -19 -40 -17 -54 -5 -54 47 l0 38 60 0 60 0 0
-30z m-379 -80 c-29 -25 -34 -25 -56 0 -18 20 -17 20 31 20 l49 -1 -24 -19z
m229 -65 c50 -26 61 -62 58 -186 -3 -106 -2 -111 21 -128 32 -25 22 -47 -29
-62 -37 -11 -43 -10 -70 10 l-30 22 -38 -22 c-70 -41 -149 -2 -158 78 -9 70
53 128 159 147 32 6 37 11 37 34 0 56 -50 71 -70 22 -14 -33 -37 -50 -68 -50
-35 0 -43 54 -15 101 33 56 129 72 203 34z m240 -1 l0 -26 31 26 c40 34 82 34
116 0 l25 -25 23 21 c12 11 38 23 58 27 32 5 41 1 72 -30 l35 -35 0 -126 c0
-116 2 -128 22 -148 20 -20 20 -22 3 -35 -24 -17 -106 -17 -129 0 -16 12 -17
19 -7 72 22 118 10 205 -28 205 -37 0 -56 -165 -27 -233 15 -37 15 -38 -10
-47 -32 -12 -94 -13 -113 -1 -12 8 -13 14 -3 36 17 38 16 219 -2 234 -19 16
-45 3 -53 -28 -12 -41 -7 -167 7 -201 17 -42 5 -50 -79 -50 -61 0 -63 1 -56
23 29 94 30 274 1 306 -9 10 -16 22 -16 28 0 15 47 31 93 32 33 1 37 -1 37
-25z m-864 2 c14 -11 19 -26 19 -63 -1 -80 -11 -103 -45 -103 -23 0 -33 6 -40
25 -12 31 -24 32 -44 3 -22 -31 -23 -190 -1 -208 22 -18 18 -47 -7 -54 -24 -6
-148 -8 -148 -3 0 2 8 19 17 38 35 68 28 319 -8 319 -5 0 -9 4 -9 10 0 10 91
40 122 40 14 0 18 -8 18 -37 l0 -37 28 31 c24 28 57 52 73 53 3 0 14 -6 25
-14z m274 1 c39 -20 70 -74 70 -124 l0 -44 -65 -30 c-35 -16 -71 -29 -78 -29
-7 0 -21 -6 -31 -13 -16 -12 -16 -14 4 -40 29 -37 69 -36 111 4 25 24 37 29
49 21 45 -29 -34 -125 -113 -137 -127 -19 -213 105 -177 254 27 115 141 183
230 138z m1655 -151 l-8 -155 27 -24 c14 -13 26 -29 26 -35 0 -19 -76 -36
-112 -26 -51 15 -58 41 -47 174 9 119 7 143 -19 173 -26 29 3 44 91 46 l49 1
-7 -154z m732 127 c47 -22 73 -66 73 -126 0 -47 -1 -49 -43 -67 -23 -10 -63
-24 -90 -31 -50 -14 -58 -30 -30 -61 26 -29 72 -23 110 14 31 30 34 31 50 15
17 -16 16 -19 -2 -53 -60 -111 -227 -109 -280 3 -26 55 -30 122 -11 181 22 66
50 100 100 123 51 23 78 24 123 2z m-1847 -489 c0 -19 -43 -63 -60 -61 -25 2
-25 2 1 38 17 25 59 41 59 23z m136 -7 c-10 -7 -31 -22 -46 -34 -27 -22 -80
-32 -80 -14 0 4 9 20 21 35 17 22 28 26 72 25 44 0 49 -2 33 -12z m283 -13
c12 -15 21 -30 21 -35 0 -18 -37 -14 -65 7 -17 13 -44 30 -60 38 l-30 16 57 0
c49 0 59 -3 77 -26z m76 -6 c19 -23 23 -34 14 -37 -12 -4 -59 45 -59 62 0 16
20 5 45 -25z m590 -36 c-3 -3 -11 0 -18 7 -9 10 -8 11 6 5 10 -3 15 -9 12 -12z
m-1930 -22 c3 -6 -1 -7 -9 -4 -18 7 -21 14 -7 14 6 0 13 -4 16 -10z m-227 -19
c3 -8 -1 -12 -9 -9 -7 2 -15 10 -17 17 -3 8 1 12 9 9 7 -2 15 -10 17 -17z
m1354 9 c40 -11 94 -66 104 -105 3 -14 3 -41 0 -61 -7 -32 -10 -35 -39 -32
-30 3 -32 6 -34 43 -3 48 -31 75 -77 75 -46 -1 -68 -22 -73 -74 -5 -44 -7 -46
-38 -46 -30 0 -33 3 -39 40 -11 68 34 140 100 160 40 11 53 11 96 0z m1274 -5
c-21 -16 -32 -13 -21 4 3 6 14 11 23 11 15 -1 15 -2 -2 -15z m-1491 -41 c-8
-20 -15 -65 -15 -99 0 -60 -1 -63 -27 -68 -16 -3 -31 0 -35 6 -11 18 -9 116 3
160 9 35 12 37 50 37 l39 0 -15 -36z m436 6 c4 -14 7 -58 8 -97 l1 -73 -38 0
c-49 0 -52 4 -40 46 7 26 5 49 -6 88 -9 30 -16 57 -16 61 0 3 19 5 42 3 35 -2
43 -7 49 -28z m-551 -19 c0 -22 -4 -42 -9 -45 -5 -4 -64 -9 -130 -13 -100 -5
-121 -4 -123 8 0 8 -2 21 -3 29 -5 48 15 54 193 58 l72 2 0 -39z m818 23 c6
-2 12 -19 12 -39 l0 -35 -114 0 c-124 0 -126 1 -126 61 l0 29 108 -6 c59 -3
113 -7 120 -10z m-1120 -16 c7 -7 12 -27 12 -45 0 -39 -2 -39 -140 -48 -52 -3
-116 -9 -142 -12 l-48 -6 0 46 c0 53 1 53 148 66 132 12 157 12 170 -1z m1355
2 c169 -14 167 -13 167 -67 l0 -45 -47 6 c-27 3 -79 8 -118 11 -38 4 -98 11
-132 17 -56 9 -63 13 -63 33 0 61 1 61 193 45z m-1708 -75 l0 -50 -90 -12
c-49 -6 -109 -12 -132 -12 l-43 -1 0 44 0 45 53 10 c84 16 170 29 192 27 17
-1 20 -8 20 -51z m2063 35 c131 -15 132 -15 132 -67 l0 -46 -62 7 c-35 4 -94
9 -133 13 -38 3 -76 10 -82 15 -14 11 -18 80 -6 92 4 4 22 5 40 1 18 -3 68
-10 111 -15z m-2364 -52 c10 -37 7 -68 -6 -73 -7 -2 -62 -11 -123 -20 -60 -9
-120 -19 -132 -22 -21 -5 -23 -2 -23 38 0 24 4 49 8 55 4 6 43 16 87 23 44 7
87 14 95 16 8 1 31 3 51 4 30 1 38 -3 43 -21z m2685 0 c78 -14 81 -16 94 -85
6 -33 6 -33 -33 -33 -42 0 -123 14 -182 32 -33 10 -38 15 -38 40 0 16 5 38 11
50 12 22 3 22 148 -4z m-1025 -36 c0 -23 -3 -44 -5 -47 -3 -2 -29 -2 -57 2
l-52 6 0 37 c0 20 3 40 7 44 4 4 30 6 58 4 l50 -3 -1 -43z m-702 -2 l3 -40
-54 -11 c-29 -6 -80 -20 -112 -30 -32 -11 -79 -22 -104 -26 l-45 -6 0 66 c0
61 2 67 23 72 34 7 93 11 193 13 l92 2 4 -40z m949 25 c5 -4 9 -33 9 -66 l0
-59 -38 0 c-40 0 -163 24 -181 35 -14 8 -14 61 0 87 11 20 17 20 106 15 52 -4
98 -9 104 -12z m-2229 0 c3 -3 2 -27 -3 -53 -4 -26 -10 -68 -14 -95 -7 -54
-11 -54 -75 7 -41 38 -70 92 -70 127 0 17 8 19 78 19 43 0 81 -2 84 -5z m3278
-19 c7 -14 10 -36 6 -51 -7 -26 -97 -125 -114 -125 -5 0 -14 35 -20 78 -7 42
-15 87 -18 100 -6 21 -4 22 63 22 63 0 71 -2 83 -24z m-2346 -27 c13 -64 7
-99 -16 -108 -32 -13 -235 -34 -247 -26 -16 9 -14 132 2 142 20 12 86 20 173
22 l82 1 6 -31z m1534 14 c20 -5 22 -11 22 -62 0 -82 -3 -84 -92 -72 -118 16
-128 22 -128 75 0 78 2 80 94 72 45 -4 91 -9 104 -13z m193 -30 c5 -5 12 -49
16 -96 7 -102 9 -100 -92 -89 l-70 7 3 74 c2 41 8 86 13 99 9 23 13 24 65 20
30 -3 59 -9 65 -15z m-2037 -15 c3 -13 6 -56 6 -96 l0 -73 -137 3 -138 3 -3
74 c-2 41 1 78 6 83 11 11 119 25 203 27 51 1 57 -1 63 -21z m2235 -12 l46
-11 3 -72 3 -71 -75 -7 c-42 -4 -87 -4 -101 -1 -24 6 -25 8 -25 97 l0 91 52
-7 c28 -4 72 -12 97 -19z m-1390 9 c-3 -2 -38 -9 -79 -15 -156 -23 -272 -72
-353 -151 -49 -47 -54 -50 -90 -43 l-39 6 43 44 c47 47 148 105 219 124 93 25
315 51 299 35z m480 -25 c116 -26 211 -74 276 -140 27 -27 47 -51 44 -53 -2
-2 -18 -7 -35 -10 -27 -5 -37 1 -92 53 -92 90 -196 135 -362 159 -126 18 -129
20 -25 16 55 -2 143 -13 194 -25z m-1629 -53 c0 -36 -5 -68 -12 -75 -8 -8 -46
-12 -106 -12 -78 0 -101 4 -127 20 -38 23 -47 42 -39 75 5 21 15 24 92 35 48
6 92 13 97 15 6 2 29 4 53 4 l42 1 0 -63z m2760 23 c20 -5 26 -14 28 -42 3
-32 -1 -37 -31 -52 -19 -9 -58 -16 -86 -16 l-51 0 0 58 c0 32 3 61 6 65 7 6
92 -2 134 -13z m-720 -50 c106 -17 110 -18 110 -44 0 -31 -16 -36 -104 -36
l-72 0 -44 45 -44 45 44 0 c25 0 74 -5 110 -10z m-1441 -40 l-42 -40 -98 0
c-90 0 -99 2 -110 21 -6 13 -7 25 -2 30 9 9 150 25 246 28 l48 1 -42 -40z"/>
<path d="M1282 2428 c-7 -7 -12 -39 -12 -75 l0 -63 35 0 35 0 0 63 c0 60 -11
87 -35 87 -6 0 -16 -5 -23 -12z m38 -64 c0 -47 -3 -55 -17 -52 -21 4 -27 28
-18 74 3 20 12 34 20 34 11 0 15 -14 15 -56z"/>
<path d="M876 2124 c-3 -9 -6 -27 -6 -40 0 -21 5 -24 35 -24 30 0 35 3 35 24
0 39 -11 56 -35 56 -13 0 -26 -7 -29 -16z m44 -29 c0 -16 -6 -25 -15 -25 -9 0
-15 9 -15 25 0 16 6 25 15 25 9 0 15 -9 15 -25z"/>
<path d="M310 1822 c0 -104 4 -183 10 -187 16 -10 75 21 103 54 66 79 62 241
-7 286 -14 9 -43 19 -66 22 l-40 6 0 -181z"/>
<path d="M1442 1724 c-15 -10 -22 -25 -22 -49 0 -58 50 -51 70 10 18 53 -3 71
-48 39z"/>
<path d="M1122 1873 c-17 -7 -42 -57 -42 -87 0 -20 4 -23 23 -19 35 9 57 34
57 63 0 30 -18 50 -38 43z"/>
<path d="M3496 1832 c-9 -11 -20 -36 -23 -57 -6 -38 -6 -38 23 -31 44 11 55
25 52 65 -3 42 -25 51 -52 23z"/>
<path d="M3673 778 c-13 -6 -23 -18 -23 -26 0 -12 6 -10 25 8 35 33 34 36 -2
18z"/>
<path d="M245 759 c11 -13 21 -26 22 -28 2 -2 3 3 3 12 0 9 -10 22 -22 28
l-23 12 20 -24z"/>
</g>
</svg>
